<svg id="line" xmlns="http://www.w3.org/2000/svg" width="50" height="50" viewBox="0 0 50 50">
  <circle id="椭圆_14" data-name="椭圆 14" cx="25" cy="25" r="25" transform="translate(0 0)" fill="#00b900"/>
  <path id="路径_1968" data-name="路径 1968" d="M4824.22,1411.024v-.068c.014-.121.033-.242.036-.365a12.067,12.067,0,0,1,1.25-4.943,14.107,14.107,0,0,1,5.624-6.023,18.211,18.211,0,0,1,15.886-1.489,14.929,14.929,0,0,1,8.079,6.345,11.879,11.879,0,0,1,1.04,11.023,15.291,15.291,0,0,1-3.445,5.068,54.247,54.247,0,0,1-11.382,8.753,5.368,5.368,0,0,1-1.234.532c-.682.2-.974-.086-.89-.827s.213-1.5.3-2.255c.111-1.047-.158-1.5-1.123-1.784-.581-.171-1.19-.237-1.784-.365a16.554,16.554,0,0,1-8.746-4.82,12.741,12.741,0,0,1-3.44-6.958C4824.3,1412.246,4824.272,1411.635,4824.22,1411.024Zm16.3-.417.073-.016q1.594,2.281,3.19,4.563a.839.839,0,0,0,1.039.428.923.923,0,0,0,.581-.973v-3.385c0-1.117,0-2.234,0-3.351a.862.862,0,0,0-.72-.887.813.813,0,0,0-.913.56,2.208,2.208,0,0,0-.075.625c-.006,1.162,0,2.323,0,3.485,0,.115-.01.23-.019.437-.284-.4-.512-.721-.736-1.041-.853-1.215-1.7-2.432-2.556-3.642a.817.817,0,0,0-.969-.4.89.89,0,0,0-.6.864q-.007,3.419,0,6.836a.872.872,0,0,0,.527.846.816.816,0,0,0,.823-.094.9.9,0,0,0,.354-.784c.011-.972,0-1.944,0-2.916Zm7.765-1.849h2.368a.824.824,0,0,0,.817-.573.938.938,0,0,0-.116-.86.846.846,0,0,0-.755-.358c-1-.013-2-.005-3,0-.711,0-1.026.339-1.026,1.095v5.629c0,.346-.01.693,0,1.039a.906.906,0,0,0,.227.63.818.818,0,0,0,.585.277q1.663.032,3.324,0a.9.9,0,0,0-.065-1.793c-.682-.006-1.364,0-2.046,0-.1,0-.205-.01-.306-.015v-1.6c.1-.007.185-.018.27-.018.7,0,1.407.008,2.109-.006a.9.9,0,0,0,.011-1.788c-.288-.009-.576,0-.862,0h-1.531Zm-16.464,5.079v-5.83a.932.932,0,0,0-.382-.91.838.838,0,0,0-.949,0,.93.93,0,0,0-.389.907v6.6a.962.962,0,0,0,.254.77.87.87,0,0,0,.732.271q1.5,0,3.006,0a.856.856,0,0,0,.678-.232.941.941,0,0,0,.292-.681.93.93,0,0,0-.294-.663.844.844,0,0,0-.664-.224c-.747-.007-1.487-.007-2.288-.007Zm5.757-2.541v-3.382a.941.941,0,0,0-.232-.659.853.853,0,0,0-.61-.29.84.84,0,0,0-.619.27.923.923,0,0,0-.245.654q-.01,3.415,0,6.831a.878.878,0,0,0,.447.8.815.815,0,0,0,.868-.026.9.9,0,0,0,.392-.813c0-1.126,0-2.258,0-3.38Z" transform="translate(-4815.469 -1388.258)" fill="#fff"/>
</svg>
