<svg xmlns="http://www.w3.org/2000/svg" width="50" height="50" viewBox="0 0 50 50">
  <g id="组_13916" data-name="组 13916" transform="translate(0 0.108)">
    <circle id="椭圆_33" data-name="椭圆 33" cx="25" cy="25" r="25" transform="translate(0 -0.108)" fill="#da0000"/>
    <path id="路径_19856" data-name="路径 19856" d="M586.658,444.717a4.182,4.182,0,0,0-2.859-3.035c-2.521-.718-12.632-.718-12.632-.718s-10.111,0-12.632.718a4.182,4.182,0,0,0-2.859,3.035,50.861,50.861,0,0,0,0,16.528,4.183,4.183,0,0,0,2.859,3.035c2.521.717,12.632.717,12.632.717s10.111,0,12.632-.717a4.183,4.183,0,0,0,2.859-3.035,50.866,50.866,0,0,0,0-16.528Zm-18.724,13.414v-10.3l8.4,5.15Z" transform="translate(-546.417 -428.221)" fill="#fff"/>
  </g>
</svg>
