<svg width="35" height="35" viewBox="0 0 35 35" fill="none" xmlns="http://www.w3.org/2000/svg">
<path fill-rule="evenodd" clip-rule="evenodd" d="M1 17.5C1 26.6127 8.3873 34 17.5 34C26.6127 34 34 26.6127 34 17.5C34 8.3873 26.6127 1 17.5 1C8.3873 1 1 8.3873 1 17.5ZM0 17.5C0 27.165 7.83502 35 17.5 35C27.165 35 35 27.165 35 17.5C35 7.83502 27.165 0 17.5 0C7.83502 0 0 7.83502 0 17.5ZM21.861 10.1407C21.7683 10.0478 21.6447 10 21.5239 10C21.4004 10 21.2796 10.045 21.1841 10.1407L13.139 16.8345C12.9537 17.0202 12.9537 17.3241 13.139 17.5098L21.0943 24.1107C21.2796 24.2964 21.5829 24.2964 21.7683 24.1107C21.9537 23.925 21.9537 23.6211 21.7683 23.4354L17.4622 17.1721L21.861 10.816C22.0463 10.6303 22.0463 10.3264 21.861 10.1407Z" fill="black"/>
</svg>
