<svg width="35" height="35" viewBox="0 0 35 35" fill="none" xmlns="http://www.w3.org/2000/svg">
<path fill-rule="evenodd" clip-rule="evenodd" d="M34 17.5C34 26.6127 26.6127 34 17.5 34C8.3873 34 1 26.6127 1 17.5C1 8.3873 8.3873 1 17.5 1C26.6127 1 34 8.3873 34 17.5ZM35 17.5C35 27.165 27.165 35 17.5 35C7.83502 35 0 27.165 0 17.5C0 7.83502 7.83502 0 17.5 0C27.165 0 35 7.83502 35 17.5ZM13.139 10.1407C13.2317 10.0478 13.3553 10 13.4761 10C13.5996 10 13.7204 10.045 13.8159 10.1407L21.861 16.8345C22.0463 17.0202 22.0463 17.3241 21.861 17.5098L13.9057 24.1107C13.7204 24.2964 13.4171 24.2964 13.2317 24.1107C13.0463 23.925 13.0463 23.6211 13.2317 23.4354L17.5378 17.1721L13.139 10.816C12.9537 10.6303 12.9537 10.3264 13.139 10.1407Z" fill="#FC7623"/>
</svg>
