<svg width="50" height="50" viewBox="0 0 50 50" fill="none" xmlns="http://www.w3.org/2000/svg">
<path d="M25 0C29.9445 0 34.778 1.46622 38.8892 4.21326C43.0005 6.96029 46.2048 10.8648 48.097 15.4329C49.9892 20.0011 50.4843 25.0277 49.5196 29.8773C48.555 34.7268 46.174 39.1814 42.6777 42.6777C39.1814 46.174 34.7268 48.555 29.8773 49.5196C25.0277 50.4843 20.0011 49.9892 15.4329 48.097C10.8648 46.2048 6.96029 43.0005 4.21326 38.8892C1.46622 34.778 0 29.9445 0 25C0 18.3696 2.63392 12.0107 7.32233 7.32233C12.0107 2.63392 18.3696 0 25 0Z" fill="#282828"/>
<path d="M25 10.8333C23.1396 10.8333 21.2974 11.1997 19.5787 11.9116C17.8599 12.6236 16.2982 13.6671 14.9827 14.9826C12.3259 17.6393 10.8333 21.2427 10.8333 24.9999C10.8333 28.7571 12.3259 32.3605 14.9827 35.0173C16.2982 36.3328 17.8599 37.3763 19.5787 38.0882C21.2974 38.8001 23.1396 39.1666 25 39.1666C28.7572 39.1666 32.3606 37.674 35.0174 35.0173C37.6741 32.3605 39.1667 28.7571 39.1667 24.9999C39.1667 23.1395 38.8002 21.2973 38.0883 19.5786C37.3764 17.8598 36.3328 16.2981 35.0174 14.9826C33.7019 13.6671 32.1401 12.6236 30.4214 11.9116C28.7026 11.1997 26.8604 10.8333 25 10.8333ZM30.95 30.9499L23.5833 26.4166V17.9166H25.7083V25.2832L32.0833 29.1082L30.95 30.9499Z" fill="white"/>
</svg>
