<svg width="301" height="40" viewBox="0 0 301 40" fill="none" xmlns="http://www.w3.org/2000/svg">
<path d="M67.2825 8.30473C66.7924 7.38905 65.3866 6.91187 63.1297 6.91187C60.8727 6.91187 59.4669 7.38905 58.964 8.31763L47.2923 31.545C47.2407 31.6481 47.2149 31.7513 47.2149 31.8416C47.2149 32.8733 49.0462 33.0926 50.5939 33.0926C52.1415 33.0926 53.0314 32.7315 53.3925 32.0092L56.0493 26.6699C56.1524 26.4507 56.3846 26.3217 56.6167 26.3217H69.5136C69.7458 26.3217 69.965 26.4507 70.0811 26.6699L72.8797 32.0221C73.2408 32.7573 74.1823 33.1184 75.6783 33.1184C77.1744 33.1184 79.0057 32.912 79.0573 31.919C79.0444 31.8803 79.0057 31.7771 78.9026 31.5708L67.2954 8.34342L67.2825 8.30473ZM66.1604 20.9824C66.0959 21.0856 65.9799 21.15 65.8509 21.15H60.4084C60.2794 21.15 60.1634 21.0856 60.0989 20.9824C60.0344 20.8792 60.0215 20.7373 60.086 20.6213L62.8072 15.7333C62.9362 15.4754 63.3489 15.4754 63.465 15.7333L66.1862 20.6213C66.2378 20.7373 66.2378 20.8663 66.1604 20.9824Z" fill="#212529"/>
<path d="M111.351 7.22144C109.584 7.22144 108.488 7.72442 107.998 8.74327L99.6666 21.911C99.4603 22.3366 98.7638 22.3366 98.5446 21.911L90.2132 8.74327C89.7231 7.72442 88.356 7.22144 86.1506 7.22144C83.4165 7.22144 83.4165 8.33057 83.352 11.2324V31.6353C83.352 31.6353 85.1318 32.7831 86.5762 32.7831C88.0207 32.7831 89.6586 32.5897 89.6586 31.6353V19.1769C89.6586 18.8802 89.865 18.6352 90.1487 18.5707C90.4324 18.5062 90.729 18.6481 90.8451 18.906L96.0942 27.4309C96.4811 28.2434 97.9384 28.4111 99.0991 28.4111C100.26 28.4111 101.717 28.2434 102.104 27.4309L107.353 18.906C107.456 18.6868 107.676 18.5449 107.921 18.5449C107.972 18.5449 108.011 18.5449 108.062 18.5578C108.346 18.6223 108.553 18.8802 108.553 19.164V31.6224C108.553 32.5768 110.229 32.7702 111.635 32.7702C113.041 32.7702 114.511 31.6224 114.511 31.6224V11.1937C114.782 7.71152 113.634 7.22144 111.351 7.22144Z" fill="#212529"/>
<path d="M137.893 8.58851C137.416 7.68572 136.049 7.22144 133.831 7.22144C131.612 7.22144 130.245 7.68572 129.768 8.6014L118.367 31.2871C118.316 31.3902 118.29 31.4934 118.29 31.5708C118.29 32.5768 120.082 32.7831 121.591 32.7831C123.1 32.7831 123.977 32.422 124.325 31.7256L126.918 26.5023C127.021 26.296 127.24 26.1541 127.472 26.1541H140.073C140.305 26.1541 140.524 26.2831 140.627 26.4894L143.361 31.7127C143.722 32.422 144.638 32.7831 146.095 32.7831C147.553 32.7831 149.345 32.5768 149.384 31.6095C149.371 31.5708 149.333 31.4676 149.242 31.2742L137.906 8.58851H137.893ZM136.861 21.4338C136.797 21.537 136.681 21.6015 136.552 21.6015H131.109C130.98 21.6015 130.864 21.537 130.8 21.4338C130.735 21.3307 130.722 21.1888 130.787 21.0727L133.508 16.1848C133.637 15.9268 134.05 15.9268 134.166 16.1848L136.887 21.0727C136.939 21.1888 136.939 21.3178 136.861 21.4338Z" fill="#212529"/>
<path d="M32.8348 7.40194C33.5828 7.60829 30.6681 5.41581 30.1651 5.10629C27.057 3.21044 23.7941 1.88206 20.0282 1.77889C15.3724 1.66281 11.0003 2.64298 6.80885 4.51303C4.64217 5.4803 2.44969 6.44757 0.566746 7.93071C0.270118 8.16286 -0.181274 8.3821 0.076664 8.85929C0.308808 9.28489 0.721509 9.2462 1.12131 9.09143C1.30187 9.02695 1.48243 8.93667 1.66298 8.84639C5.51916 7.1569 9.58168 6.27991 13.7474 6.00907C14.3535 5.97038 14.9597 5.94459 15.5529 5.94459C19.7444 5.94459 24.9806 8.17575 28.6304 10.4843C30.5649 10.1748 31.7773 8.89798 32.8219 7.38904L32.8348 7.40194Z" fill="#F6C304"/>
<path d="M29.4171 10.9742C31.9965 13.6568 35.182 18.0546 36.1364 21.5884C37.6325 27.1211 37.1037 32.641 34.8467 37.9545C34.5759 38.5994 33.7247 39.4893 34.4727 39.9149C35.1691 40.3147 35.7624 39.2055 36.2138 38.6252C40.7922 32.7055 41.321 26.0507 39.5283 19.0864C39.2704 18.1062 38.9737 17.1389 38.6126 16.1974C37.5551 13.373 35.5303 10.0069 33.5957 7.60811C31.687 8.24006 29.7396 8.96228 29.43 10.9871L29.4171 10.9742Z" fill="#F6C304"/>
<path d="M35.6721 6.18962C37.1166 4.64199 38.5094 3.02988 39.9023 1.41777C40.1989 1.06955 40.7535 0.605261 40.3279 0.166766C39.9152 -0.258832 39.3864 0.23125 39.0124 0.514982C37.8259 1.40487 36.7039 2.37214 35.5303 3.28782L26.1026 10.9873C22.0659 14.2115 17.9905 17.397 14.044 20.7244C11.8129 22.6074 9.42693 24.2969 7.20866 26.1927C6.79596 26.5409 6.28008 26.8892 6.60251 27.5469C6.87334 28.1015 7.40212 28.2433 7.98248 28.2175C8.22752 28.2175 8.48546 28.2304 8.7305 28.2175C10.1621 28.1144 10.7166 28.8753 10.6779 30.1908C10.6779 30.539 10.6521 30.8872 10.6392 31.2225C10.6392 31.8158 10.5748 32.4606 11.3357 32.6799C11.9934 32.8604 12.4448 32.5896 12.8446 32.035C13.425 31.2354 14.0956 30.5003 14.7405 29.7652C18.2355 25.7929 21.679 21.782 25.2643 17.8871L35.6592 6.20252L35.6721 6.18962Z" fill="#ED7F1D"/>
<path d="M5.91896 36.0976C7.64267 36.0976 9.04002 34.7003 9.04002 32.9766C9.04002 31.2529 7.64267 29.8555 5.91896 29.8555C4.19525 29.8555 2.79791 31.2529 2.79791 32.9766C2.79791 34.7003 4.19525 36.0976 5.91896 36.0976Z" fill="#F6C304"/>
<path d="M158.812 8.16287H166.898C167.401 8.16287 167.775 8.27894 168.033 8.49819C168.304 8.67875 168.446 9.11724 168.446 9.80078C168.446 10.3553 168.368 10.7294 168.201 10.9357C167.93 11.3097 167.491 11.4903 166.898 11.4903H166.653V17.5905H167.324C167.272 17.41 167.246 17.2165 167.246 17.0101C167.246 16.7393 167.336 16.404 167.517 16.0429C168.858 13.8504 169.955 11.1807 170.793 8.05969C170.96 7.37616 171.334 7.04084 171.902 7.04084C172.469 7.04084 172.908 7.16981 173.256 7.42775C173.682 7.59541 173.888 7.98231 173.888 8.58847C173.888 8.92379 173.836 9.23331 173.72 9.52994C173.604 10.0458 173.475 10.5488 173.334 11.026H175.629C175.926 10.1361 176.158 9.22042 176.326 8.25315C176.493 7.40195 176.932 6.96346 177.654 6.95056C178.118 6.95056 178.57 7.06663 179.008 7.28588C179.408 7.53092 179.614 7.91783 179.614 8.4724C179.614 8.58847 179.614 8.70454 179.588 8.83351C179.472 9.52994 179.331 10.2651 179.15 11.026H181.317C181.871 11.026 182.245 11.1421 182.426 11.3613C182.632 11.5677 182.735 11.9417 182.735 12.4962C182.735 12.9992 182.658 13.3603 182.516 13.6054C182.271 13.902 181.884 14.0439 181.33 14.0439H178.673V17.2552H180.994C181.497 17.2552 181.833 17.3584 182.013 17.5647C182.219 17.7711 182.323 18.158 182.323 18.7125C182.323 19.1768 182.245 19.525 182.078 19.7443C181.858 20.0022 181.497 20.1312 180.994 20.1312H178.673V23.3425H180.994C181.497 23.3425 181.833 23.4328 182.013 23.6263C182.219 23.8455 182.323 24.2324 182.323 24.7741C182.323 25.2771 182.245 25.6382 182.078 25.8316C181.858 26.0896 181.497 26.2185 180.994 26.2185H178.673V29.6233H181.226C182.245 29.6233 182.748 30.1392 182.748 31.1709C182.748 32.2027 182.245 32.7444 181.226 32.7444H172.108C170.354 32.7444 169.477 31.8545 169.477 30.0876V18.6481C169.361 18.661 169.258 18.6738 169.142 18.6738C169.026 18.6738 168.923 18.6738 168.832 18.6481C168.871 18.8286 168.884 19.0221 168.884 19.2026C168.884 19.7572 168.794 20.1699 168.613 20.4278C168.394 20.7374 167.968 20.905 167.336 20.905H166.666V30.5519C166.666 32.1769 165.337 32.9894 162.681 32.9894C161.817 32.9507 161.223 32.7702 160.901 32.4606C160.527 32.1898 160.346 31.8029 160.346 31.3257C160.346 30.7325 160.54 30.2682 160.927 29.9457C161.404 29.7394 162.023 29.6362 162.784 29.6362C163.171 29.6362 163.364 29.533 163.364 29.3267V20.905H163.119C162.874 22.4526 162.436 23.9874 161.791 25.5092C160.849 27.6501 159.921 29.1977 158.992 30.1392C158.721 30.4874 158.386 30.668 158.025 30.668C157.483 30.668 157.045 30.4874 156.696 30.1134C156.361 29.7007 156.194 29.3396 156.168 29.0043C156.168 28.4368 156.348 27.9854 156.696 27.6501C157.935 26.0251 158.786 24.6064 159.25 23.407C159.56 22.6332 159.818 21.7949 160.024 20.9179H159.134C157.638 20.8792 156.864 20.2086 156.813 18.8931C156.813 18.6481 157.212 16.8425 158.038 13.4635C158.205 12.78 158.799 12.4188 159.843 12.3802C160.707 12.3931 161.159 12.8058 161.172 13.6054C161.172 13.7343 160.901 14.9853 160.372 17.3713C160.372 17.5131 160.488 17.5905 160.707 17.5905H163.39V11.4903H158.85C158.373 11.4903 157.986 11.3484 157.715 11.0776C157.419 10.8583 157.277 10.4327 157.277 9.80078C157.277 9.16883 157.419 8.70454 157.715 8.4466C157.935 8.26605 158.309 8.17577 158.85 8.17577L158.812 8.16287ZM175.436 17.2552V14.0439H172.663V17.2552H175.436ZM175.436 23.3554V20.1441H172.663V23.3554H175.436ZM175.436 29.6491V26.2443H172.663V29.1332C172.663 29.4815 172.805 29.6491 173.101 29.6491H175.423H175.436Z" fill="#212529"/>
<path d="M197.49 24.7483C197.915 24.7483 198.315 24.8386 198.676 25.0191C199.011 25.1997 199.179 25.4576 199.205 25.7672C199.334 25.5866 199.514 25.4447 199.759 25.3545C199.966 25.2384 200.159 25.1868 200.34 25.1868C200.856 25.1868 201.23 25.3416 201.449 25.664C201.655 26.1025 201.9 27.0053 202.197 28.3465C202.377 29.2364 202.468 29.9587 202.468 30.539C202.468 30.8872 202.352 31.1452 202.132 31.3128C201.887 31.5837 201.565 31.7384 201.139 31.7513C200.701 31.7513 200.378 31.674 200.198 31.5321C200.043 31.416 199.953 31.2612 199.927 31.0549C199.746 29.9974 199.463 28.6819 199.102 27.0956C199.102 27.1471 199.102 27.2116 199.076 27.2632C198.728 29.2751 198.341 30.797 197.915 31.8287C197.696 32.293 197.257 32.5251 196.613 32.5251C196.174 32.5251 195.723 32.3317 195.284 31.9448C194.975 31.674 194.807 31.2612 194.807 30.7196C194.82 30.6422 194.91 30.5003 195.052 30.3069C195.258 29.8684 195.439 29.3783 195.607 28.8366H195.581C194.91 29.2235 192.937 29.8942 189.648 30.8357C188.823 31.1452 188.101 31.3128 187.482 31.3128C187.043 31.3128 186.656 31.1065 186.347 30.7067C186.089 30.3327 185.96 29.9071 185.96 29.4299C185.96 28.7464 186.256 28.2305 186.85 27.8823C187.623 27.6114 188.397 27.3406 189.171 27.1084V21.0082H188.062C187.43 21.0082 186.94 20.8534 186.592 20.531C186.295 20.2731 186.153 19.7959 186.153 19.0866C186.153 18.3772 186.295 17.9387 186.592 17.7066C186.901 17.4616 187.391 17.3455 188.062 17.3455H189.171V12.8058H187.843C187.211 12.8058 186.721 12.6639 186.372 12.3673C186.102 12.0965 185.96 11.6064 185.96 10.897C185.96 10.1877 186.102 9.74921 186.372 9.51707C186.682 9.27203 187.172 9.15596 187.843 9.15596H193.943C194.626 9.15596 195.116 9.28493 195.413 9.54286C195.671 9.76211 195.8 10.2135 195.8 10.897C195.8 11.4645 195.684 11.8901 195.465 12.1738C195.129 12.5994 194.626 12.8058 193.943 12.8058H192.718V17.3455H193.685C194.368 17.3455 194.871 17.4745 195.181 17.7324C195.439 17.9516 195.568 18.403 195.568 19.0866C195.568 19.6798 195.452 20.1054 195.233 20.3634C194.897 20.789 194.381 20.9953 193.685 20.9953H192.718V25.9864C193.363 25.8059 194.02 25.6124 194.691 25.4318C195.374 25.4318 195.8 25.5866 195.968 25.909C196.11 26.0767 196.226 26.2444 196.303 26.412C196.38 26.1154 196.445 25.8317 196.496 25.5479C196.613 25.0707 196.935 24.7999 197.49 24.7483ZM209.871 7.93075C210.773 7.96944 211.251 8.47242 211.315 9.45258C211.263 10.4327 210.773 10.9486 209.871 11.0002H206.659V12.6897H209.677C210.141 12.6897 210.451 12.7671 210.619 12.9347C210.786 13.1024 210.864 13.4248 210.864 13.902C210.864 14.3276 210.799 14.65 210.67 14.8693C210.464 15.1143 210.128 15.2304 209.677 15.2304H206.659V16.7522H209.574C210.012 16.7522 210.335 16.8296 210.515 16.9973C210.696 17.2036 210.786 17.526 210.786 17.9645C210.786 18.403 210.709 18.7513 210.567 18.9318C210.348 19.1769 210.012 19.2929 209.574 19.2929H206.659V20.9824H208.349C209.587 20.9824 210.477 21.163 211.005 21.5112C211.444 21.8078 211.676 22.5043 211.676 23.6134C211.676 25.3158 211.586 26.9279 211.405 28.4626C211.186 30.1263 210.773 31.2741 210.18 31.8932C209.548 32.5896 208.632 32.9507 207.433 32.9507C206.569 32.9507 205.86 32.7573 205.331 32.3704C204.918 32.0609 204.712 31.6482 204.699 31.1452C204.699 30.7196 204.75 30.3843 204.867 30.1521C204.686 30.2295 204.467 30.2682 204.235 30.294C203.899 30.294 203.654 30.2295 203.487 30.1005C203.358 30.0103 203.28 29.8813 203.267 29.7136C203.022 28.785 202.7 27.6114 202.3 26.167C202.287 26.0767 202.274 25.9735 202.274 25.8574C202.274 25.7285 202.3 25.5737 202.352 25.3803C202.468 25.161 202.648 24.9805 202.906 24.8515C203.113 24.7612 203.306 24.7096 203.487 24.7096C203.925 24.7096 204.26 24.8515 204.48 25.1481C204.686 25.535 204.918 26.3088 205.176 27.4438C205.357 28.1789 205.447 28.7979 205.447 29.2751V29.3525C205.615 29.3009 205.769 29.2751 205.924 29.2751C206.221 29.2751 206.621 29.3138 207.149 29.3912C207.498 29.3912 207.743 29.172 207.897 28.7593C207.949 28.6174 207.988 28.4497 208.013 28.2563C207.704 28.4755 207.381 28.5916 207.046 28.5916C206.633 28.5916 206.375 28.4497 206.247 28.1789C205.989 27.3535 205.679 26.541 205.331 25.7414C205.279 25.6124 205.253 25.4963 205.253 25.4061C205.253 25.0707 205.395 24.8386 205.692 24.6838C205.937 24.5678 206.195 24.5162 206.466 24.5162C206.762 24.5162 206.995 24.5807 207.162 24.7096C207.33 24.9547 207.562 25.3932 207.859 26.038C208 26.2959 208.117 26.5281 208.194 26.7344C208.233 26.0896 208.258 25.3545 208.271 24.5162C208.271 24.1293 208.001 23.9358 207.472 23.9358H198.857C197.232 23.9358 196.419 23.0072 196.419 21.163V9.99425C196.419 8.58849 197.193 7.89206 198.741 7.89206H209.909L209.871 7.93075ZM203.254 12.7026V11.0131H200.237C199.966 11.0131 199.824 11.2453 199.824 11.7095V12.7026H203.254ZM203.254 16.778V15.2562H199.824V16.778H203.254ZM203.254 21.0211V19.3316H199.824V20.3247C199.824 20.789 200.004 21.0211 200.353 21.0211H203.267H203.254Z" fill="#212529"/>
<path d="M221.503 7.24696C222.148 7.24696 222.69 7.40173 223.141 7.72415C223.606 7.89181 223.838 8.3303 223.838 9.05253C223.838 9.43944 223.773 9.81345 223.644 10.1875C223.257 11.6448 222.78 13.0377 222.2 14.3661V31.0804C222.2 31.7253 222.019 32.1638 221.671 32.4088C221.4 32.7184 220.936 32.886 220.291 32.886C219.724 32.886 219.298 32.7313 219.014 32.4088C218.705 32.1638 218.537 31.7253 218.537 31.0804V20.75C218.537 20.75 218.46 20.8661 218.421 20.9177C218.176 21.2659 217.776 21.4465 217.196 21.4465C216.551 21.4465 216.048 21.2788 215.7 20.9435C215.365 20.634 215.197 20.2084 215.197 19.6925C215.197 19.3185 215.326 18.9058 215.584 18.4415C217.544 15.6686 219.105 12.3154 220.265 8.3561C220.472 7.62097 220.872 7.24696 221.491 7.24696H221.503ZM226.959 8.04657H238.012C239.43 8.04657 240.14 8.743 240.14 10.1488V16.0169C240.14 17.3968 239.43 18.0933 238.012 18.0933H234.155V19.8988H239.559C240.165 19.8988 240.617 20.0149 240.888 20.2341C241.133 20.4147 241.249 20.8145 241.249 21.4207C241.249 21.9365 241.145 22.3105 240.939 22.5556C240.63 22.9296 240.165 23.1102 239.559 23.1102H235.819C237.315 24.9544 239.017 26.6826 240.913 28.2947C241.262 28.5398 241.442 28.9138 241.442 29.4296C241.442 29.8939 241.287 30.255 241.004 30.5388C240.694 30.9644 240.178 31.1707 239.456 31.1707C238.992 31.1707 238.553 31.0418 238.153 30.7838C237.857 30.6548 237.547 30.4098 237.238 30.0358C236.167 28.9138 235.136 27.637 234.168 26.2183V30.9515C234.168 31.6221 234.001 32.0864 233.665 32.3701C233.369 32.7055 232.904 32.8731 232.247 32.8731C231.64 32.8731 231.163 32.7055 230.828 32.3701C230.531 32.0993 230.389 31.6221 230.389 30.9515V26.1796C229.409 27.6628 228.223 29.1072 226.843 30.5259C226.237 31.0418 225.592 31.2997 224.934 31.2997C224.379 31.2223 223.915 31.0289 223.554 30.6935C223.219 30.384 223.051 29.9842 223.051 29.507C223.051 29.2878 223.167 28.9525 223.412 28.514C225.682 26.5923 227.384 24.7868 228.507 23.1102H224.741C224.173 23.1102 223.748 22.9683 223.464 22.6975C223.193 22.4782 223.051 22.0526 223.051 21.4207C223.051 20.8274 223.193 20.4276 223.464 20.1955C223.722 19.9891 224.147 19.8859 224.741 19.8859H230.389V18.0804H226.959C225.553 18.0804 224.857 17.3839 224.857 16.004V10.1359C224.857 8.73011 225.553 8.03367 226.959 8.03367V8.04657ZM235.793 15.0238C236.18 15.0238 236.374 14.8303 236.374 14.4434V11.6964C236.374 11.3095 236.18 11.116 235.793 11.116H229.177C228.79 11.116 228.597 11.3095 228.597 11.6964V14.4434C228.597 14.8303 228.79 15.0238 229.177 15.0238H235.793Z" fill="#212529"/>
<path d="M252.43 8.35632C253.63 8.35632 254.236 8.98827 254.236 10.2651C254.236 11.2065 254.146 12.2641 253.965 13.4377C254.017 13.399 254.081 13.3603 254.133 13.3216C256.493 11.4645 258.582 9.60732 260.401 7.77596C260.968 7.2214 261.626 6.95056 262.335 6.95056C263.045 6.95056 263.844 7.38906 264.721 8.27894C265.959 9.56863 267.855 11.1807 270.435 13.1153C270.86 13.3861 271.066 13.7601 271.066 14.2244C271.066 14.908 270.912 15.4367 270.589 15.8236C270.215 16.2492 269.764 16.4556 269.209 16.4556C268.797 16.4556 268.294 16.2234 267.687 15.7591C267.442 15.5915 267.21 15.4238 266.991 15.2304C266.952 15.3593 266.901 15.4625 266.823 15.5399C266.565 15.8494 266.179 16.0042 265.663 16.0042H259.433C258.969 16.0042 258.608 15.8881 258.35 15.6431C258.17 15.5012 258.053 15.2562 258.015 14.9208C257.499 15.4238 257.022 15.8365 256.596 16.1976C256.158 16.4943 255.797 16.6361 255.539 16.6361C254.907 16.6361 254.352 16.3911 253.875 15.8881C253.759 15.7076 253.669 15.5141 253.604 15.3078C253.398 16.2234 253.166 17.1907 252.908 18.1838C253.849 20.2473 254.326 22.2076 254.326 24.0519C254.326 25.8961 254.081 27.0568 253.578 27.8178C253.062 28.7979 252.237 29.288 251.115 29.288C250.302 29.288 249.567 29.1461 248.897 28.8753V31.4031C248.845 32.2285 248.329 32.6799 247.349 32.7315C246.369 32.6799 245.866 32.2285 245.827 31.4031V10.149C245.827 8.94958 246.266 8.35632 247.156 8.35632H252.443H252.43ZM248.884 25.6124C249.309 25.7285 249.683 25.78 249.993 25.78C250.547 25.78 250.921 25.4705 251.128 24.8644C251.27 24.4904 251.347 23.8713 251.347 23.0072C251.347 21.9239 250.947 20.6987 250.161 19.3445C249.98 18.9963 249.89 18.661 249.89 18.3514C249.89 17.9645 249.954 17.6421 250.083 17.3842C250.844 15.4496 251.218 13.6183 251.218 11.903C251.218 11.774 251.141 11.7095 250.999 11.7095H248.897V25.6253L248.884 25.6124ZM256.557 17.3584H260.414C261.536 17.3584 262.103 17.9 262.103 18.9963V23.8713C262.103 24.9933 261.536 25.5608 260.414 25.5608H259.111L259.163 25.5866C259.498 25.8058 259.666 26.1283 259.666 26.5539C259.666 26.7731 259.614 27.0052 259.498 27.2503C259.936 27.6372 260.452 28.1918 261.02 28.914C261.407 29.4299 261.69 29.8426 261.845 30.1392C262.529 29.7265 263.083 29.2622 263.509 28.7205C263.973 28.166 264.347 27.4051 264.644 26.4249C264.734 26.0251 264.902 25.7285 265.147 25.5608H264.76C263.638 25.5608 263.07 24.9933 263.07 23.8713V18.9963C263.07 17.9129 263.638 17.3584 264.76 17.3584H268.616C269.738 17.3584 270.306 17.9 270.306 18.9963V23.8713C270.306 24.9933 269.738 25.5608 268.616 25.5608H267.043C267.133 25.6124 267.21 25.664 267.262 25.7027C267.571 25.9219 267.739 26.2443 267.739 26.6699C267.739 26.915 267.687 27.1729 267.597 27.4437C267.559 27.5727 267.52 27.7017 267.455 27.8306C268.345 28.7592 269.325 29.6233 270.422 30.4358C270.77 30.7453 270.95 31.0807 270.95 31.4289C270.95 31.8029 270.77 32.1511 270.422 32.4864C270.112 32.8218 269.622 32.9894 268.951 32.9894C268.642 32.9894 268.319 32.8475 267.984 32.5509C267.765 32.4606 267.172 31.8158 266.204 30.6422C266.153 30.5906 266.114 30.539 266.088 30.5003C265.366 31.4418 264.579 32.1898 263.702 32.7444C263.444 32.912 263.199 32.9894 262.954 32.9894C262.451 32.9894 262 32.7573 261.6 32.293C261.51 32.1769 261.432 32.0737 261.381 31.9577C261.033 32.1769 260.633 32.293 260.194 32.293C259.653 32.293 259.292 32.1124 259.085 31.7642C258.789 31.1581 258.453 30.5648 258.092 29.9844C258.079 30.0618 258.041 30.1134 258.015 30.1521C257.164 31.2096 256.222 32.0221 255.19 32.6154C254.881 32.7831 254.584 32.8604 254.326 32.8604C253.785 32.8604 253.32 32.6154 252.908 32.1382C252.598 31.8029 252.43 31.4418 252.43 31.0549C252.43 30.5132 252.624 30.1134 253.011 29.8297C253.875 29.4557 254.597 29.0043 255.177 28.4755C255.771 27.9209 256.235 27.1858 256.557 26.283C256.635 25.9348 256.751 25.6769 256.919 25.535H256.557C255.448 25.535 254.894 24.9675 254.894 23.8455V18.9705C254.894 17.8871 255.448 17.3326 256.557 17.3326V17.3584ZM258.776 22.8782C259.124 22.8782 259.304 22.6977 259.304 22.3495V20.5439C259.304 20.1957 259.124 20.0151 258.776 20.0151H258.195C257.847 20.0151 257.667 20.1957 257.667 20.5439V22.3495C257.667 22.6977 257.847 22.8782 258.195 22.8782H258.776ZM259.795 13.1282H264.644C263.973 12.4575 263.315 11.7482 262.645 11.0002C262.477 10.7938 262.374 10.6907 262.309 10.6907C262.142 10.6907 261.961 10.768 261.755 10.9357C261.058 11.7482 260.401 12.4833 259.782 13.1282H259.795ZM266.965 22.8782C267.313 22.8782 267.494 22.6977 267.494 22.3495V20.5439C267.494 20.1957 267.313 20.0151 266.965 20.0151H266.385C266.037 20.0151 265.856 20.1957 265.856 20.5439V22.3495C265.856 22.6977 266.037 22.8782 266.385 22.8782H266.965Z" fill="#212529"/>
<path d="M298.885 7.93056C299.259 7.93056 299.556 8.02084 299.801 8.2014C300.007 8.40775 300.11 8.75597 300.11 9.25895C300.11 9.76193 300.02 10.0843 299.839 10.252C299.62 10.4584 299.298 10.5615 298.898 10.5615H294.629C294.926 10.8066 295.08 11.1032 295.106 11.4772H297.879C298.769 11.4772 299.207 11.9157 299.207 12.8056V14.2243C299.207 15.1141 298.769 15.5526 297.879 15.5526H295.132V16.2491H299.207C299.581 16.2491 299.839 16.3265 300.007 16.4683C300.136 16.5844 300.2 16.8423 300.2 17.2421C300.2 17.5388 300.149 17.758 300.033 17.9128C299.852 18.1191 299.569 18.2223 299.207 18.2223H287.678C287.342 18.2223 287.097 18.1449 286.93 18.003C286.775 17.8612 286.71 17.6032 286.71 17.255C286.71 16.8552 286.788 16.5844 286.93 16.4812C287.071 16.3393 287.329 16.262 287.678 16.262H291.805V15.5655H289.032C288.129 15.5655 287.678 15.127 287.678 14.2372V12.8185C287.678 11.9286 288.129 11.4901 289.032 11.4901H291.83C291.869 11.1548 291.998 10.8582 292.217 10.5744H287.226C286.71 10.5744 286.452 10.8453 286.452 11.374V28.9912C286.452 29.4942 286.71 29.7392 287.226 29.7392H287.807C287.716 29.5587 287.665 29.3394 287.665 29.1073C287.678 28.772 287.871 28.5011 288.245 28.3077C289.045 27.8434 289.664 27.4436 290.128 27.1212H289.354C288.077 27.1212 287.445 26.4892 287.445 25.2124V20.8017C287.445 19.5249 288.077 18.8929 289.354 18.8929H297.776C299.027 18.8929 299.659 19.5249 299.659 20.8017V25.2124C299.659 26.4892 299.027 27.1212 297.776 27.1212H297.299C297.763 27.6241 298.279 28.1013 298.846 28.5656C298.962 28.6172 299.027 28.6817 299.066 28.7591C299.207 28.8751 299.285 29.0686 299.285 29.3394C299.285 29.5071 299.246 29.649 299.169 29.7779C299.478 29.8166 299.736 29.9069 299.917 30.0488C300.084 30.2938 300.162 30.6291 300.162 31.0676C300.162 31.5061 300.084 31.8027 299.943 32.0091C299.698 32.267 299.375 32.396 298.949 32.396H285.679C283.976 32.396 283.125 31.5448 283.125 29.8424V22.9168C283.125 22.9168 283.086 22.9426 283.073 22.9426C282.854 23.2005 282.506 23.3295 282.016 23.3295C281.603 23.3295 281.319 23.136 281.126 22.7491C280.971 22.1172 280.829 21.5239 280.687 20.9435V31.5319C280.687 31.9188 280.571 32.2541 280.352 32.525C280.081 32.8732 279.617 33.0537 278.998 33.0537C278.482 33.0537 278.082 32.8732 277.811 32.525C277.592 32.2541 277.476 31.9188 277.476 31.5319V23.5487C277.167 25.0319 276.896 25.9733 276.677 26.3989C276.431 26.7085 276.032 26.8761 275.451 26.8761C275.013 26.8761 274.652 26.6956 274.368 26.3216C274.071 25.9475 273.93 25.4962 273.93 24.9674C273.93 24.5676 274.007 24.0904 274.149 23.5487C275.142 21.2789 276.083 18.5318 276.947 15.3205H275.787C275.309 15.3205 274.91 15.1915 274.6 14.9336C274.291 14.6756 274.123 14.2243 274.123 13.5794C274.123 12.883 274.278 12.3929 274.6 12.1092C274.845 11.8899 275.232 11.7738 275.787 11.7738H277.476V8.80755C277.476 8.30457 277.618 7.93056 277.889 7.67263C278.147 7.376 278.521 7.23413 278.998 7.23413C279.514 7.23413 279.914 7.376 280.184 7.67263C280.52 7.93056 280.687 8.30457 280.687 8.80755V11.7738H281.913C282.454 11.7738 282.854 11.9028 283.138 12.1608V10.4713C283.138 8.76886 283.989 7.91767 285.691 7.91767H298.885V7.93056ZM280.713 15.3334V17.3066C280.971 17.1905 281.255 17.139 281.577 17.139C281.758 17.139 281.913 17.2163 282.055 17.3582C282.235 17.6548 282.441 18.1191 282.661 18.7382C282.841 19.3056 283.009 19.8215 283.164 20.26V14.9723C282.867 15.2173 282.467 15.3334 281.938 15.3334H280.713ZM291.792 14.0308V13.0119H290.683C290.463 13.0119 290.347 13.128 290.347 13.3473V13.7084C290.347 13.9276 290.463 14.0437 290.683 14.0437H291.792V14.0308ZM290.683 21.2015H296.447V20.892C296.447 20.5824 296.293 20.4148 295.97 20.4148H291.095C290.824 20.4148 290.683 20.5695 290.683 20.892V21.2015ZM290.683 23.3295H296.447V22.5299H290.683V23.3295ZM295.97 25.5477C296.28 25.5477 296.447 25.393 296.447 25.0706V24.6579H290.683V25.0706C290.683 25.3801 290.824 25.5477 291.095 25.5477H295.97ZM296.331 29.7263C295.738 29.2105 295.196 28.5398 294.694 27.7273C294.577 27.5597 294.526 27.3791 294.526 27.1728V27.0954H292.591C292.643 27.2372 292.669 27.3791 292.669 27.5081C292.669 27.8563 292.553 28.1142 292.308 28.2819C292.153 28.5269 291.908 28.772 291.56 29.0299C291.289 29.2749 290.992 29.5071 290.67 29.7263H296.319H296.331ZM296.215 14.0179C296.435 14.0179 296.551 13.9018 296.551 13.6826V13.3215C296.551 13.1022 296.435 12.9862 296.215 12.9862H295.106V14.005H296.215V14.0179Z" fill="#212529"/>
</svg>
