<svg width="233" height="65" viewBox="0 0 233 65" fill="none" xmlns="http://www.w3.org/2000/svg">
<path d="M1.3462 8.55533L29.2485 0.168343C31.2726 -0.443583 32.9384 0.681281 32.9384 2.66104V27.2101C32.9384 29.1898 31.1952 30.8096 29.0645 30.8096H1.93699C0.871643 30.8096 0 29.9997 0 29.0099V10.2651C0 9.48222 0.542356 8.7893 1.33652 8.55533H1.3462Z" fill="white"/>
<path d="M1.3462 56.4325L29.2485 64.8195C31.2726 65.4314 32.9384 64.3066 32.9384 62.3268V37.7778C32.9384 35.798 31.1952 34.1782 29.0645 34.1782H1.93699C0.871643 34.1782 0 34.9881 0 35.978V54.7137C0 55.4966 0.542356 56.1896 1.33652 56.4235L1.3462 56.4325Z" fill="white"/>
<path d="M70.0704 9.48336L43.7564 0.268477C40.8413 -0.7484 37.7324 1.24936 37.7324 4.13801V60.2282C37.7324 63.1978 40.2021 64.8266 43.2238 63.8548L69.2762 55.4408C70.4094 55.0718 71.1648 54.082 71.1648 52.9661V10.9412C71.1648 10.2933 70.729 9.70833 70.0801 9.47436L70.0704 9.48336ZM69.5184 42.6893C69.5184 46.3699 67.01 49.6455 63.2716 50.8603L51.8821 54.5409C46.6135 56.2417 41.1028 52.6061 41.1028 47.4228V19.2472C41.1028 12.0031 48.8991 6.99066 56.1919 9.54635L60.0659 10.9052C65.7606 12.8939 69.528 17.9513 69.528 23.6026V42.6893H69.5184Z" fill="white"/>
<path d="M47.2237 34.3454C48.962 34.3454 50.3713 33.036 50.3713 31.4207C50.3713 29.8055 48.962 28.4961 47.2237 28.4961C45.4853 28.4961 44.076 29.8055 44.076 31.4207C44.076 33.036 45.4853 34.3454 47.2237 34.3454Z" fill="white"/>
<path d="M82.535 24.0427H89.1982C90.3894 24.0427 91.203 24.2317 91.6485 24.6006C92.249 25.1586 92.5589 25.9055 92.5589 26.8234C92.5589 27.7412 92.1134 28.8211 91.2223 30.054C89.6243 32.2317 87.9004 33.9955 86.0506 35.3453C84.7141 36.2812 83.8231 36.7852 83.3582 36.8661C82.5737 36.8661 81.9442 36.6412 81.4793 36.1912C81.0338 35.7053 80.8111 35.2553 80.8111 34.8414C80.8304 34.1845 81.121 33.6175 81.6924 33.1226C83.6875 31.9077 85.3145 30.6299 86.5639 29.2981C87.1644 28.6771 87.4743 28.2272 87.4743 27.9482C87.4743 27.7412 87.3581 27.6423 87.1063 27.6423H82.535C81.3631 27.5703 80.7529 26.9583 80.6852 25.8155C80.7433 24.6906 81.3631 24.0967 82.535 24.0427ZM85.5567 18.1934H95.3288C97.5853 18.1934 98.7185 19.2823 98.7185 21.451V21.9819C99.1252 22.6749 99.4836 23.3048 99.8032 23.8627C101.479 22.7379 103.077 21.505 104.588 20.1552C104.888 19.8582 105.149 19.6062 105.372 19.3993C105.798 18.9673 106.244 18.7423 106.709 18.7243C107.232 18.7243 107.667 18.8773 108.006 19.1743C108.607 19.5162 108.917 20.0382 108.917 20.7491C108.917 21.181 108.8 21.595 108.549 21.9909C107.018 23.7187 104.762 25.3295 101.798 26.8324C102.021 27.1113 102.224 27.3633 102.399 27.5883C104.094 29.667 106.098 31.5118 108.423 33.1316C108.965 33.4286 109.236 33.9325 109.236 34.6254C109.236 35.1833 109.052 35.6963 108.694 36.1462C108.394 36.6322 107.9 36.8751 107.212 36.8751C106.563 36.8751 105.73 36.4972 104.704 35.7503C103.212 34.6254 101.653 33.0146 100.045 30.9089C99.5804 30.198 99.1349 29.505 98.7088 28.8301V34.2565C98.7088 35.8673 98.4376 36.8931 97.8953 37.3251C97.3916 38.072 96.5297 38.45 95.3191 38.45C93.9438 38.432 92.4233 38.27 90.7478 37.973C90.1861 37.802 89.7599 37.5141 89.4791 37.1001C89.1982 36.7222 89.0529 36.2362 89.0529 35.6423C89.0917 35.1024 89.2563 34.6614 89.5372 34.3195C89.8374 34.0045 90.2829 33.8335 90.8737 33.8155C91.0383 33.8155 91.1933 33.8335 91.3579 33.8695C92.123 33.9775 92.8107 34.0405 93.4111 34.0405C94.1375 34.0405 94.4959 33.7885 94.4959 33.2846V23.1338C94.4959 22.2519 94.0891 21.811 93.2852 21.811H85.5373C84.3848 21.739 83.7746 21.1271 83.6875 19.9842C83.765 18.8413 84.3848 18.2474 85.5373 18.2114L85.5567 18.1934ZM90.5154 12.1191C91.2998 12.1191 92.1812 12.2091 93.1497 12.3981C96.859 13.226 99.8613 13.9819 102.137 14.6748C102.718 15.0528 103.038 15.5027 103.077 16.0247C103.077 16.6096 102.96 17.0325 102.709 17.3205C102.37 17.9054 101.847 18.1934 101.169 18.1934C100.491 18.1934 99.7741 18.1034 99.0478 17.9144C96.0648 17.0865 92.8978 16.3216 89.5469 15.6107C88.7236 15.2958 88.3072 14.8458 88.3072 14.2609C88.3072 13.532 88.5299 12.974 88.9754 12.6051C89.3435 12.2901 89.8568 12.1281 90.5154 12.1281V12.1191Z" fill="white"/>
<path d="M116.432 26.0673H135.046C136.354 26.0673 137.012 26.6613 137.012 27.8401V33.9144C137.012 35.1292 136.354 35.7412 135.046 35.7412H132.954C134.407 36.0561 135.87 36.2991 137.342 36.4701C137.768 36.5061 138.213 36.5511 138.678 36.614C139.347 36.686 139.676 36.956 139.676 37.406C139.676 37.7479 139.608 38.0359 139.463 38.2788C139.279 38.5218 139.066 38.7108 138.824 38.8368C138.581 39.0078 138.126 39.0887 137.458 39.0887C136.751 39.0887 135.734 38.9808 134.398 38.7468C132.218 38.2968 130.33 37.8109 128.742 37.289C128.335 37.136 128.025 36.947 127.802 36.731C127.618 36.5421 127.531 36.3261 127.531 36.0831C127.531 35.9931 127.57 35.8761 127.647 35.7412H123.347C123.463 35.9121 123.531 36.0831 123.531 36.2721C123.531 36.632 123.415 36.902 123.163 37.091C122.698 37.316 121.943 37.5589 120.897 37.8199C119.706 38.1979 118.078 38.5938 116.025 39.0258C115.26 39.2327 114.369 39.3317 113.362 39.3317C112.839 39.3317 112.355 39.1247 111.909 38.7108C111.667 38.4498 111.541 38.0809 111.541 37.6129C111.561 37.271 111.812 36.974 112.297 36.713C114.815 36.3351 116.829 36.0111 118.321 35.7322H116.413C115.105 35.7322 114.447 35.1202 114.447 33.9054V27.8311C114.447 26.6523 115.105 26.0583 116.413 26.0583L116.432 26.0673ZM125.633 11.894C126.398 11.894 126.93 12.029 127.24 12.29C127.56 12.515 127.763 12.7939 127.841 13.1359H137.012C138.872 13.1359 139.802 13.8018 139.802 15.1336V16.3755C139.802 17.0324 139.608 17.4824 139.23 17.7253C138.949 17.9863 138.562 18.1393 138.078 18.1753C138.058 18.3463 138.01 18.4722 137.923 18.5712C137.758 18.7782 137.497 18.8772 137.138 18.8772H133.39V19.7501H138.107C138.494 19.7501 138.765 19.8221 138.92 19.9751C139.085 20.128 139.163 20.389 139.163 20.767C139.163 21.0819 139.104 21.3159 138.979 21.4689C138.775 21.6939 138.485 21.8108 138.097 21.8108H137.913C138.281 22.0358 138.456 22.3328 138.456 22.7107V24.0606C138.456 25.0145 137.797 25.4914 136.48 25.4914H127.018C125.826 25.4914 125.226 24.9785 125.226 23.9436V22.5937C125.226 22.2518 125.352 21.9908 125.623 21.8018C125.303 21.7838 125.052 21.7029 124.868 21.5499C124.684 21.4149 124.596 21.1539 124.596 20.758C124.596 20.443 124.664 20.209 124.809 20.0561C124.567 20.0021 124.354 19.8941 124.18 19.7501C123.822 19.5431 123.638 19.2552 123.638 18.8772V18.7692C123.492 18.8412 123.337 18.8772 123.153 18.8772H120.538V19.9751H122.96C123.299 19.9751 123.56 20.0471 123.744 20.2C123.948 20.308 124.044 20.578 124.044 20.9919C124.044 21.4059 123.986 21.6489 123.86 21.7838C123.657 22.0088 123.357 22.1258 122.95 22.1258H120.529V23.0527L123.521 22.9447C123.967 22.9447 124.296 23.0257 124.519 23.1967C124.742 23.4216 124.848 23.7096 124.848 24.0696C124.848 24.3485 124.78 24.5735 124.635 24.7445C124.451 24.9335 124.209 25.0415 123.909 25.0864L113.497 25.6174C113.052 25.5994 112.742 25.4914 112.558 25.3114C112.374 25.1584 112.287 24.8885 112.287 24.4925C112.306 24.0786 112.413 23.7996 112.616 23.6466C112.781 23.4756 113.023 23.3857 113.343 23.3677L117.1 23.1967V22.1258H114.195C113.875 22.1258 113.614 22.0448 113.41 21.8738C113.207 21.7209 113.11 21.4329 113.11 21.0009C113.11 20.605 113.207 20.335 113.41 20.182C113.575 20.0471 113.836 19.9841 114.195 19.9841H117.1V18.8862H113.866C113.527 18.8862 113.246 18.7962 113.052 18.6072C112.887 18.4722 112.8 18.2473 112.781 17.9323C112.597 17.8603 112.452 17.7613 112.326 17.6533C111.958 17.3114 111.783 16.8524 111.783 16.2765V15.1516C111.783 13.8198 112.713 13.1539 114.573 13.1539H123.502C123.599 12.8389 123.783 12.542 124.044 12.281C124.345 12.038 124.868 11.912 125.613 11.912L125.633 11.894ZM124.296 17.9413C125.148 17.2484 125.894 16.4655 126.533 15.6106H116.422C116.083 15.6106 115.909 15.7096 115.909 15.9166V16.7355H123.173C123.541 16.7355 123.812 16.7984 123.986 16.9334C124.19 17.0414 124.286 17.3204 124.286 17.7523V17.9503L124.296 17.9413ZM118.572 28.767H132.887V28.1731C132.887 28.0201 132.8 27.9481 132.616 27.9481H118.844C118.66 27.9481 118.572 28.0201 118.572 28.1731V28.767ZM118.572 31.3587H132.887V30.4318H118.572V31.3587ZM132.616 33.8064C132.8 33.8064 132.887 33.7434 132.887 33.6084V33.0145H118.572V33.6084C118.572 33.7434 118.66 33.8064 118.844 33.8064H132.616ZM130.223 19.7501V18.8772H127.434V18.5082C127.066 18.9222 126.708 19.2552 126.349 19.5161C126.311 19.6061 126.262 19.6871 126.194 19.7411H130.223V19.7501ZM128.044 21.8018C128.267 22.0088 128.374 22.2698 128.374 22.5937V23.3497C128.374 23.4216 128.451 23.4576 128.616 23.4576H130.214V21.8018H128.035H128.044ZM128.645 16.9604H135.666V15.9166C135.666 15.7096 135.453 15.6106 135.027 15.6106H129.216C129.235 15.6826 129.245 15.7546 129.245 15.8086C129.245 16.0155 129.1 16.3125 128.819 16.7085C128.761 16.7984 128.703 16.8884 128.635 16.9604H128.645ZM133.371 23.4576H134.814C135.143 23.4576 135.308 23.4216 135.308 23.3497V22.7017C135.308 22.3418 135.492 22.0538 135.85 21.8288L135.908 21.8018H133.371V23.4576Z" fill="white"/>
<path d="M149.216 12.4282C149.923 12.4282 150.513 12.5901 150.998 12.9051C151.501 13.0761 151.753 13.526 151.753 14.2549C151.753 14.6509 151.685 15.0288 151.54 15.4068C151.114 16.8916 150.591 18.3044 149.971 19.6543V36.6082C149.971 37.2652 149.777 37.7151 149.4 37.9581C149.099 38.273 148.596 38.435 147.889 38.435C147.259 38.435 146.804 38.273 146.494 37.9581C146.155 37.7151 145.981 37.2652 145.981 36.6082V26.1155C145.942 26.1695 145.903 26.2235 145.865 26.2865C145.603 26.6464 145.158 26.8174 144.528 26.8174C143.821 26.8174 143.279 26.6464 142.891 26.3135C142.523 25.9985 142.349 25.5756 142.349 25.0446C142.349 24.6667 142.494 24.2437 142.775 23.7758C144.915 20.9681 146.62 17.5485 147.889 13.535C148.111 12.7881 148.557 12.4102 149.225 12.4102L149.216 12.4282ZM155.181 13.2471H167.259C168.808 13.2471 169.593 13.958 169.593 15.3888V21.3461C169.593 22.7499 168.818 23.4518 167.259 23.4518H163.055V25.2786H168.953C169.622 25.2786 170.106 25.3866 170.406 25.6206C170.668 25.8095 170.803 26.2145 170.803 26.8264C170.803 27.3484 170.687 27.7353 170.474 27.9783C170.135 28.3562 169.622 28.5362 168.963 28.5362H164.876C166.513 30.408 168.363 32.1628 170.445 33.7916C170.832 34.0345 171.016 34.4215 171.016 34.9434C171.016 35.4114 170.852 35.7893 170.532 36.0683C170.193 36.5002 169.622 36.7162 168.837 36.7162C168.334 36.7162 167.859 36.5812 167.414 36.3203C167.094 36.1853 166.755 35.9333 166.416 35.5644C165.244 34.4215 164.121 33.1257 163.055 31.6858V36.4912C163.055 37.1662 162.871 37.6431 162.513 37.9221C162.193 38.264 161.67 38.426 160.973 38.426C160.305 38.426 159.791 38.255 159.433 37.9221C159.114 37.6431 158.949 37.1662 158.949 36.4912V31.6498C157.884 33.1527 156.586 34.6195 155.075 36.0683C154.407 36.5902 153.709 36.8602 152.983 36.8602C152.383 36.7882 151.869 36.5812 151.472 36.2393C151.104 35.9243 150.93 35.5194 150.93 35.0334C150.93 34.8085 151.056 34.4755 151.327 34.0255C153.806 32.0728 155.666 30.246 156.896 28.5452H152.78C152.15 28.5452 151.695 28.4012 151.385 28.1223C151.085 27.8973 150.93 27.4653 150.93 26.8264C150.93 26.2235 151.085 25.8185 151.385 25.5846C151.666 25.3776 152.131 25.2786 152.78 25.2786H158.959V23.4518H155.201C153.671 23.4518 152.896 22.7499 152.896 21.3461V15.3888C152.896 13.967 153.661 13.2471 155.201 13.2471H155.181ZM164.837 20.3382C165.263 20.3382 165.477 20.1402 165.477 19.7443V16.9636C165.477 16.5677 165.263 16.3697 164.837 16.3697H157.603C157.177 16.3697 156.963 16.5677 156.963 16.9636V19.7443C156.963 20.1402 157.177 20.3382 157.603 20.3382H164.837Z" fill="white"/>
<path d="M181.902 13.55C183.21 13.55 183.868 14.1979 183.868 15.4847C183.868 16.4386 183.771 17.5095 183.568 18.7063C183.626 18.6704 183.684 18.6344 183.752 18.5984C186.338 16.7086 188.614 14.8368 190.589 12.965C191.219 12.4071 191.926 12.1191 192.71 12.1191C193.495 12.1191 194.367 12.5691 195.316 13.469C196.672 14.7738 198.744 16.4116 201.553 18.3734C202.018 18.6524 202.25 19.0303 202.25 19.4983C202.25 20.1912 202.076 20.7311 201.737 21.1271C201.33 21.559 200.826 21.775 200.226 21.775C199.78 21.775 199.228 21.541 198.56 21.0731C198.299 20.9021 198.047 20.7311 197.805 20.5421C197.766 20.6771 197.708 20.7761 197.621 20.8481C197.34 21.163 196.914 21.325 196.352 21.325H189.543C189.04 21.325 188.643 21.208 188.362 20.9561C188.159 20.8031 188.042 20.5601 187.994 20.2272C187.432 20.7311 186.909 21.163 186.454 21.514C185.97 21.811 185.582 21.964 185.301 21.964C184.614 21.964 184.013 21.712 183.481 21.208C183.365 21.0191 183.258 20.8301 183.18 20.6231C182.958 21.559 182.706 22.5309 182.425 23.5478C183.452 25.6445 183.965 27.6333 183.965 29.505C183.965 31.3768 183.694 32.5647 183.151 33.3296C182.59 34.3195 181.689 34.8234 180.459 34.8234C179.568 34.8234 178.764 34.6794 178.038 34.4005V36.9561C177.98 37.802 177.408 38.252 176.343 38.306C175.278 38.252 174.716 37.802 174.677 36.9561V15.3767C174.677 14.1619 175.161 13.559 176.13 13.559H181.912L181.902 13.55ZM178.028 31.0709C178.493 31.1788 178.9 31.2418 179.239 31.2418C179.839 31.2418 180.256 30.9359 180.478 30.3149C180.643 29.937 180.721 29.3161 180.721 28.4342C180.721 27.3273 180.285 26.0945 179.423 24.7266C179.219 24.3667 179.123 24.0337 179.123 23.7187C179.123 23.3228 179.19 22.9988 179.336 22.7379C180.159 20.7671 180.575 18.9133 180.575 17.1675C180.575 17.0325 180.498 16.9696 180.333 16.9696H178.028V31.0889V31.0709ZM186.415 22.6929H190.619C191.849 22.6929 192.468 23.2418 192.468 24.3487V29.2981C192.468 30.4409 191.849 31.0169 190.619 31.0169H189.195L189.253 31.0439C189.621 31.2688 189.795 31.5928 189.795 32.0247C189.795 32.2497 189.737 32.4837 189.611 32.7267C190.096 33.1226 190.648 33.6805 191.277 34.4184C191.703 34.9404 192.003 35.3543 192.187 35.6603C192.933 35.2464 193.543 34.7694 194.008 34.2295C194.512 33.6715 194.928 32.8886 195.248 31.8988C195.345 31.4848 195.529 31.1968 195.79 31.0259H195.364C194.134 31.0259 193.514 30.4499 193.514 29.3071V24.3577C193.514 23.2508 194.124 22.7019 195.364 22.7019H199.567C200.797 22.7019 201.417 23.2508 201.417 24.3577V29.3071C201.417 30.4499 200.797 31.0259 199.567 31.0259H197.843C197.94 31.0799 198.027 31.1248 198.086 31.1698C198.425 31.3948 198.599 31.7188 198.599 32.1507C198.599 32.3937 198.55 32.6547 198.444 32.9426C198.405 33.0776 198.357 33.2036 198.289 33.3386C199.257 34.2745 200.332 35.1564 201.524 35.9843C201.911 36.2992 202.095 36.6412 202.095 36.9921C202.095 37.3701 201.901 37.7211 201.524 38.063C201.185 38.405 200.642 38.5669 199.916 38.5669C199.577 38.5669 199.219 38.414 198.86 38.117C198.618 38.027 197.969 37.3791 196.923 36.1732C196.865 36.1192 196.827 36.0653 196.807 36.0293C196.023 36.9831 195.151 37.748 194.202 38.306C193.921 38.477 193.65 38.558 193.388 38.558C192.846 38.558 192.352 38.324 191.907 37.856C191.81 37.748 191.723 37.6311 191.664 37.5141C191.277 37.7391 190.851 37.856 190.367 37.856C189.786 37.856 189.379 37.6761 189.156 37.3251C188.836 36.7042 188.468 36.1102 188.071 35.5253C188.052 35.5973 188.023 35.6603 187.984 35.6963C187.054 36.7672 186.028 37.5951 184.895 38.198C184.556 38.369 184.236 38.45 183.955 38.45C183.374 38.45 182.851 38.207 182.415 37.7211C182.076 37.3791 181.902 37.0191 181.902 36.6232C181.902 36.0833 182.115 35.6693 182.541 35.3813C183.49 35.0034 184.275 34.5444 184.904 34.0045C185.553 33.4466 186.057 32.6997 186.415 31.7818C186.493 31.4218 186.628 31.1698 186.812 31.0259H186.415C185.205 31.0259 184.594 30.4499 184.594 29.3071V24.3577C184.594 23.2508 185.195 22.7019 186.415 22.7019V22.6929ZM188.836 28.2902C189.224 28.2902 189.408 28.1102 189.408 27.7593V25.9325C189.408 25.5725 189.214 25.4015 188.836 25.4015H188.197C187.81 25.4015 187.626 25.5815 187.626 25.9325V27.7593C187.626 28.1192 187.82 28.2902 188.197 28.2902H188.836ZM189.96 18.3914H195.258C194.531 17.7165 193.805 16.9966 193.078 16.2226C192.894 16.0157 192.778 15.9167 192.71 15.9167C192.526 15.9167 192.323 15.9977 192.11 16.1687C191.345 16.9966 190.628 17.7345 189.96 18.3914ZM197.795 28.2902C198.182 28.2902 198.366 28.1102 198.366 27.7593V25.9325C198.366 25.5725 198.173 25.4015 197.795 25.4015H197.156C196.768 25.4015 196.584 25.5815 196.584 25.9325V27.7593C196.584 28.1192 196.778 28.2902 197.156 28.2902H197.795Z" fill="white"/>
<path d="M231.567 13.1377C231.973 13.1377 232.303 13.2277 232.564 13.4167C232.787 13.6237 232.893 13.9746 232.893 14.4876C232.893 15.0005 232.797 15.3335 232.593 15.5045C232.351 15.7114 232.012 15.8104 231.567 15.8104H226.908C227.228 16.0534 227.402 16.3593 227.421 16.7373H230.443C231.412 16.7373 231.896 17.1872 231.896 18.0871V19.518C231.896 20.4179 231.412 20.8678 230.443 20.8678H227.45V21.5697H231.896C232.303 21.5697 232.593 21.6417 232.777 21.7947C232.922 21.9027 232.99 22.1726 232.99 22.5866C232.99 22.8836 232.932 23.1085 232.806 23.2615C232.603 23.4685 232.303 23.5675 231.896 23.5675H219.305C218.937 23.5675 218.666 23.4955 218.492 23.3425C218.327 23.1895 218.25 22.9376 218.25 22.5866C218.25 22.1726 218.327 21.9117 218.492 21.7947C218.657 21.6417 218.928 21.5697 219.305 21.5697H223.819V20.8678H220.797C219.809 20.8678 219.315 20.4179 219.315 19.518V18.0871C219.315 17.1872 219.809 16.7373 220.797 16.7373H223.857C223.896 16.3953 224.041 16.0894 224.284 15.8104H218.841C218.279 15.8104 217.988 16.0804 217.988 16.6293V34.5191C217.988 35.0231 218.269 35.2751 218.841 35.2751H219.48C219.383 35.0861 219.325 34.8701 219.325 34.6271C219.344 34.2852 219.557 34.0152 219.964 33.8082C220.836 33.3403 221.514 32.9353 222.017 32.6024H221.165C219.77 32.6024 219.073 31.9545 219.073 30.6586V26.1862C219.073 24.8903 219.77 24.2424 221.165 24.2424H230.366C231.741 24.2424 232.419 24.8903 232.419 26.1862V30.6586C232.419 31.9545 231.731 32.6024 230.366 32.6024H229.852C230.356 33.1063 230.918 33.5923 231.547 34.0602C231.663 34.1142 231.751 34.1772 231.789 34.2582C231.954 34.3662 232.031 34.5641 232.031 34.8521C232.031 35.0231 231.993 35.1671 231.915 35.302C232.254 35.338 232.525 35.437 232.729 35.581C232.913 35.824 233 36.1749 233 36.6249C233 37.0748 232.922 37.3718 232.758 37.5788C232.496 37.8397 232.128 37.9747 231.673 37.9747H217.175C215.315 37.9747 214.386 37.1108 214.386 35.383V28.3549C214.386 28.3549 214.347 28.3819 214.327 28.3819C214.085 28.6429 213.698 28.7778 213.175 28.7778C212.729 28.7778 212.41 28.5799 212.206 28.1839C212.042 27.545 211.887 26.9331 211.722 26.3571V37.1018C211.722 37.4978 211.606 37.8307 211.354 38.1097C211.054 38.4697 210.56 38.6406 209.872 38.6406C209.311 38.6406 208.875 38.4607 208.575 38.1097C208.332 37.8307 208.207 37.4888 208.207 37.1018V29.0028C207.868 30.5056 207.567 31.4685 207.325 31.9005C207.064 32.2154 206.618 32.3774 205.989 32.3774C205.504 32.3774 205.107 32.1884 204.807 31.8195C204.488 31.4415 204.323 30.9826 204.323 30.4426C204.323 30.0287 204.4 29.5517 204.565 29.0118C205.65 26.7081 206.676 23.9184 207.625 20.6608H206.357C205.834 20.6608 205.398 20.5258 205.059 20.2649C204.72 20.0039 204.546 19.545 204.546 18.888C204.546 18.1771 204.72 17.6822 205.059 17.3942C205.32 17.1693 205.756 17.0523 206.357 17.0523H208.207V14.0466C208.207 13.5427 208.361 13.1557 208.662 12.8948C208.943 12.5978 209.349 12.4448 209.872 12.4448C210.434 12.4448 210.87 12.5978 211.17 12.8948C211.538 13.1557 211.712 13.5427 211.712 14.0466V17.0523H213.049C213.63 17.0523 214.076 17.1872 214.386 17.4482V15.7294C214.386 14.0016 215.315 13.1377 217.175 13.1377H231.586H231.567ZM211.712 20.6428V22.6406C211.993 22.5326 212.303 22.4696 212.652 22.4696C212.855 22.4696 213.02 22.5416 213.165 22.6946C213.369 22.9915 213.591 23.4595 213.833 24.0984C214.037 24.6833 214.221 25.1963 214.376 25.6462V20.2739C214.056 20.5168 213.611 20.6428 213.039 20.6428H211.703H211.712ZM223.819 19.32V18.2761H222.608C222.366 18.2761 222.24 18.3841 222.24 18.6181V18.987C222.24 19.212 222.356 19.329 222.608 19.329H223.819V19.32ZM222.608 26.6001H228.903V26.2941C228.903 25.9792 228.729 25.8172 228.39 25.8172H223.063C222.763 25.8172 222.608 25.9792 222.608 26.2941V26.6001ZM222.608 28.7688H228.903V27.9499H222.608V28.7688ZM228.39 31.0186C228.729 31.0186 228.903 30.8566 228.903 30.5416V30.1187H222.608V30.5416C222.608 30.8566 222.763 31.0186 223.063 31.0186H228.39ZM228.787 35.2661C228.138 34.7441 227.547 34.0692 227.005 33.2413C226.889 33.0703 226.821 32.8813 226.821 32.6834V32.6024H224.7C224.758 32.7554 224.787 32.8903 224.787 33.0253C224.787 33.3853 224.652 33.6463 224.39 33.8172C224.225 34.0602 223.954 34.3122 223.577 34.5731C223.276 34.8161 222.947 35.0501 222.608 35.2751H228.787V35.2661ZM228.671 19.32C228.913 19.32 229.039 19.212 229.039 18.978V18.6091C229.039 18.3841 228.923 18.2671 228.671 18.2671H227.46V19.311H228.671V19.32Z" fill="white"/>
<mask id="mask0_32_10930" style="mask-type:luminance" maskUnits="userSpaceOnUse" x="80" y="12" width="30" height="27">
<path d="M82.535 24.0427H89.1982C90.3894 24.0427 91.203 24.2317 91.6485 24.6006C92.249 25.1586 92.5589 25.9055 92.5589 26.8234C92.5589 27.7412 92.1134 28.8211 91.2223 30.054C89.6243 32.2317 87.9004 33.9955 86.0506 35.3453C84.7141 36.2812 83.8231 36.7852 83.3582 36.8661C82.5737 36.8661 81.9442 36.6412 81.4793 36.1912C81.0338 35.7053 80.8111 35.2553 80.8111 34.8414C80.8304 34.1845 81.121 33.6175 81.6924 33.1226C83.6875 31.9077 85.3145 30.6299 86.5639 29.2981C87.1644 28.6771 87.4743 28.2272 87.4743 27.9482C87.4743 27.7412 87.3581 27.6423 87.1063 27.6423H82.535C81.3631 27.5703 80.7529 26.9583 80.6852 25.8155C80.7433 24.6906 81.3631 24.0967 82.535 24.0427ZM85.5567 18.1934H95.3288C97.5853 18.1934 98.7185 19.2823 98.7185 21.451V21.9819C99.1252 22.6749 99.4836 23.3048 99.8032 23.8627C101.479 22.7379 103.077 21.505 104.588 20.1552C104.888 19.8582 105.149 19.6062 105.372 19.3993C105.798 18.9673 106.244 18.7423 106.709 18.7243C107.232 18.7243 107.667 18.8773 108.006 19.1743C108.607 19.5162 108.917 20.0382 108.917 20.7491C108.917 21.181 108.8 21.595 108.549 21.9909C107.018 23.7187 104.762 25.3295 101.798 26.8324C102.021 27.1113 102.224 27.3633 102.399 27.5883C104.094 29.667 106.098 31.5118 108.423 33.1316C108.965 33.4286 109.236 33.9325 109.236 34.6254C109.236 35.1833 109.052 35.6963 108.694 36.1462C108.394 36.6322 107.9 36.8751 107.212 36.8751C106.563 36.8751 105.73 36.4972 104.704 35.7503C103.212 34.6254 101.653 33.0146 100.045 30.9089C99.5804 30.198 99.1349 29.505 98.7088 28.8301V34.2565C98.7088 35.8673 98.4376 36.8931 97.8953 37.3251C97.3916 38.072 96.5297 38.45 95.3191 38.45C93.9438 38.432 92.4233 38.27 90.7478 37.973C90.1861 37.802 89.7599 37.5141 89.4791 37.1001C89.1982 36.7222 89.0529 36.2362 89.0529 35.6423C89.0917 35.1024 89.2563 34.6614 89.5372 34.3195C89.8374 34.0045 90.2829 33.8335 90.8737 33.8155C91.0383 33.8155 91.1933 33.8335 91.3579 33.8695C92.123 33.9775 92.8107 34.0405 93.4111 34.0405C94.1375 34.0405 94.4959 33.7885 94.4959 33.2846V23.1338C94.4959 22.2519 94.0891 21.811 93.2852 21.811H85.5373C84.3848 21.739 83.7746 21.1271 83.6875 19.9842C83.765 18.8413 84.3848 18.2474 85.5373 18.2114L85.5567 18.1934ZM90.5154 12.1191C91.2998 12.1191 92.1812 12.2091 93.1497 12.3981C96.859 13.226 99.8613 13.9819 102.137 14.6748C102.718 15.0528 103.038 15.5027 103.077 16.0247C103.077 16.6096 102.96 17.0325 102.709 17.3205C102.37 17.9054 101.847 18.1934 101.169 18.1934C100.491 18.1934 99.7741 18.1034 99.0478 17.9144C96.0648 17.0865 92.8978 16.3216 89.5469 15.6107C88.7236 15.2958 88.3072 14.8458 88.3072 14.2609C88.3072 13.532 88.5299 12.974 88.9754 12.6051C89.3435 12.2901 89.8568 12.1281 90.5154 12.1281V12.1191Z" fill="white"/>
</mask>
<g mask="url(#mask0_32_10930)">
<path d="M103.086 12.1191H88.3169V18.1934H103.086V12.1191Z" fill="white"/>
<path d="M109.265 18.1938H83.7166V19.9328H109.265V18.1938Z" fill="white"/>
<path d="M109.265 19.9404H83.7166V20.2471H109.265V19.9404Z" fill="white"/>
<path d="M109.265 20.248H83.7166V20.5547H109.265V20.248Z" fill="white"/>
<path d="M109.265 20.5527H83.7166V20.8594H109.265V20.5527Z" fill="white"/>
<path d="M109.265 20.8555H83.7166V21.1621H109.265V20.8555Z" fill="white"/>
<path d="M109.265 21.1592H83.7166V21.4659H109.265V21.1592Z" fill="white"/>
<path d="M109.265 21.4712H83.7166V21.7779H109.265V21.4712Z" fill="white"/>
<path d="M109.265 21.7759H83.7166V22.0826H109.265V21.7759Z" fill="white"/>
<path d="M109.265 22.083H83.7166V22.3897H109.265V22.083Z" fill="white"/>
<path d="M109.265 22.3896H83.7166V22.6963H109.265V22.3896Z" fill="white"/>
<path d="M109.265 22.6924H83.7166V22.9991H109.265V22.6924Z" fill="white"/>
<path d="M109.265 22.999H83.7166V23.3057H109.265V22.999Z" fill="white"/>
<path d="M109.265 23.3062H83.7166V23.6128H109.265V23.3062Z" fill="white"/>
<path d="M109.265 23.6113H83.7166V23.918H109.265V23.6113Z" fill="white"/>
<path d="M109.265 23.917H83.7166V24.2237H109.265V23.917Z" fill="white"/>
<path d="M109.265 24.2324H83.7166V24.5391H109.265V24.2324Z" fill="white"/>
<path d="M109.265 24.5376H83.7166V24.8443H109.265V24.5376Z" fill="white"/>
<path d="M109.265 24.8442H83.7166V25.1509H109.265V24.8442Z" fill="white"/>
<path d="M109.265 25.1514H83.7166V25.458H109.265V25.1514Z" fill="white"/>
<path d="M109.265 25.4561H83.7166V25.7627H109.265V25.4561Z" fill="white"/>
<path d="M109.265 25.7603H83.7166V26.0669H109.265V25.7603Z" fill="white"/>
<path d="M109.265 26.0679H83.7166V26.3745H109.265V26.0679Z" fill="white"/>
<path d="M109.265 26.374H83.7166V26.6807H109.265V26.374Z" fill="white"/>
<path d="M109.265 26.6807H83.7166V26.9873H109.265V26.6807Z" fill="white"/>
<path d="M109.265 26.9951H83.7166V27.3018H109.265V26.9951Z" fill="white"/>
<path d="M109.265 27.3013H83.7166V27.6079H109.265V27.3013Z" fill="white"/>
<path d="M109.265 27.6074H83.7166V27.9141H109.265V27.6074Z" fill="white"/>
<path d="M109.265 27.9116H83.7166V28.2183H109.265V27.9116Z" fill="white"/>
<path d="M109.265 28.2202H83.7166V28.5269H109.265V28.2202Z" fill="white"/>
<path d="M109.265 28.5239H83.7166V28.8306H109.265V28.5239Z" fill="white"/>
<path d="M109.265 28.8301H83.7166V29.1368H109.265V28.8301Z" fill="white"/>
<path d="M109.265 29.1353H83.7166V29.4419H109.265V29.1353Z" fill="white"/>
<path d="M109.265 29.4512H83.7166V29.7578H109.265V29.4512Z" fill="white"/>
<path d="M109.265 29.7578H83.7166V30.0645H109.265V29.7578Z" fill="white"/>
<path d="M109.265 30.0649H83.7166V30.3716H109.265V30.0649Z" fill="white"/>
<path d="M109.265 30.3701H83.7166V30.6768H109.265V30.3701Z" fill="white"/>
<path d="M109.265 30.6758H83.7166V30.9825H109.265V30.6758Z" fill="white"/>
<path d="M109.265 30.981H83.7166V31.2876H109.265V30.981Z" fill="white"/>
<path d="M109.265 31.2876H83.7166V31.5943H109.265V31.2876Z" fill="white"/>
<path d="M109.265 31.5923H83.7166V31.899H109.265V31.5923Z" fill="white"/>
<path d="M109.265 31.8979H83.7166V32.2046H109.265V31.8979Z" fill="white"/>
<path d="M109.265 32.2134H83.7166V32.5201H109.265V32.2134Z" fill="white"/>
<path d="M109.265 32.5195H83.7166V32.8262H109.265V32.5195Z" fill="white"/>
<path d="M109.265 32.8257H83.7166V33.1324H109.265V32.8257Z" fill="white"/>
<path d="M109.265 33.1343H83.7166V33.441H109.265V33.1343Z" fill="white"/>
<path d="M109.265 33.438H83.7166V33.7447H109.265V33.438Z" fill="white"/>
<path d="M109.265 33.7441H83.7166V34.0508H109.265V33.7441Z" fill="white"/>
<path d="M109.265 34.0488H83.7166V34.3555H109.265V34.0488Z" fill="white"/>
<path d="M109.265 34.356H83.7166V34.6626H109.265V34.356Z" fill="white"/>
<path d="M109.265 34.6714H83.7166V34.9781H109.265V34.6714Z" fill="white"/>
<path d="M109.265 34.9761H83.7166V35.2828H109.265V34.9761Z" fill="white"/>
<path d="M109.265 35.2837H83.7166V35.5904H109.265V35.2837Z" fill="white"/>
<path d="M109.265 35.5874H83.7166V35.8941H109.265V35.5874Z" fill="white"/>
<path d="M109.265 35.894H83.7166V38.4439H109.265V35.894Z" fill="white"/>
<path d="M92.5587 24.0439H80.6947V24.2243H92.5587V24.0439Z" fill="white"/>
<path d="M92.5587 24.2324H80.6947V24.5391H92.5587V24.2324Z" fill="white"/>
<path d="M92.5587 24.5376H80.6947V24.8443H92.5587V24.5376Z" fill="white"/>
<path d="M92.5587 24.8442H80.6947V25.1509H92.5587V24.8442Z" fill="white"/>
<path d="M92.5587 25.1514H80.6947V25.458H92.5587V25.1514Z" fill="white"/>
<path d="M92.5587 25.4561H80.6947V25.7627H92.5587V25.4561Z" fill="white"/>
<path d="M92.5587 25.7603H80.6947V26.0669H92.5587V25.7603Z" fill="white"/>
<path d="M92.5587 26.0679H80.6947V26.3745H92.5587V26.0679Z" fill="white"/>
<path d="M92.5587 26.374H80.6947V26.6807H92.5587V26.374Z" fill="white"/>
<path d="M92.5587 26.6807H80.6947V26.9873H92.5587V26.6807Z" fill="white"/>
<path d="M92.5587 26.9951H80.6947V27.3018H92.5587V26.9951Z" fill="white"/>
<path d="M92.5587 27.3013H80.6947V27.6079H92.5587V27.3013Z" fill="white"/>
<path d="M92.5587 27.6074H80.6947V27.9141H92.5587V27.6074Z" fill="white"/>
<path d="M92.5587 27.9116H80.6947V28.2183H92.5587V27.9116Z" fill="white"/>
<path d="M92.5587 28.2202H80.6947V28.5269H92.5587V28.2202Z" fill="white"/>
<path d="M92.5587 28.5239H80.6947V28.8306H92.5587V28.5239Z" fill="white"/>
<path d="M92.5587 28.8301H80.6947V29.1368H92.5587V28.8301Z" fill="white"/>
<path d="M92.5587 29.1353H80.6947V29.4419H92.5587V29.1353Z" fill="white"/>
<path d="M92.5587 29.4512H80.6947V29.7578H92.5587V29.4512Z" fill="white"/>
<path d="M92.5587 29.7578H80.6947V30.0645H92.5587V29.7578Z" fill="white"/>
<path d="M92.5587 30.0649H80.6947V30.3716H92.5587V30.0649Z" fill="white"/>
<path d="M92.5587 30.3701H80.6947V30.6768H92.5587V30.3701Z" fill="white"/>
<path d="M92.5587 30.6758H80.6947V30.9825H92.5587V30.6758Z" fill="white"/>
<path d="M92.5587 30.981H80.6947V31.2876H92.5587V30.981Z" fill="white"/>
<path d="M92.5587 31.2876H80.6947V31.5943H92.5587V31.2876Z" fill="white"/>
<path d="M92.5587 31.5923H80.6947V31.899H92.5587V31.5923Z" fill="white"/>
<path d="M92.5587 31.8979H80.6947V32.2046H92.5587V31.8979Z" fill="white"/>
<path d="M92.5587 32.2134H80.6947V32.5201H92.5587V32.2134Z" fill="white"/>
<path d="M92.5587 32.5195H80.6947V32.8262H92.5587V32.5195Z" fill="white"/>
<path d="M92.5587 32.8257H80.6947V33.1324H92.5587V32.8257Z" fill="white"/>
<path d="M92.5587 33.1343H80.6947V33.441H92.5587V33.1343Z" fill="white"/>
<path d="M92.5587 33.438H80.6947V33.7447H92.5587V33.438Z" fill="white"/>
<path d="M92.5587 33.7441H80.6947V34.0508H92.5587V33.7441Z" fill="white"/>
<path d="M92.5587 34.0488H80.6947V34.3555H92.5587V34.0488Z" fill="white"/>
<path d="M92.5587 34.356H80.6947V34.6626H92.5587V34.356Z" fill="white"/>
<path d="M92.5587 34.6714H80.6947V34.9781H92.5587V34.6714Z" fill="white"/>
<path d="M92.5587 34.9761H80.6947V35.2828H92.5587V34.9761Z" fill="white"/>
<path d="M92.5587 35.2837H80.6947V35.5904H92.5587V35.2837Z" fill="white"/>
<path d="M92.5587 35.5874H80.6947V35.8941H92.5587V35.5874Z" fill="white"/>
<path d="M92.5587 35.894H80.6947V36.8671H92.5587V35.894Z" fill="white"/>
</g>
<mask id="mask1_32_10930" style="mask-type:luminance" maskUnits="userSpaceOnUse" x="111" y="11" width="29" height="29">
<path d="M116.432 26.0673H135.046C136.354 26.0673 137.012 26.6613 137.012 27.8401V33.9144C137.012 35.1292 136.354 35.7412 135.046 35.7412H132.954C134.407 36.0561 135.87 36.2991 137.342 36.4701C137.768 36.5061 138.213 36.5511 138.678 36.614C139.347 36.686 139.676 36.956 139.676 37.406C139.676 37.7479 139.608 38.0359 139.463 38.2788C139.279 38.5218 139.066 38.7108 138.824 38.8368C138.581 39.0078 138.126 39.0887 137.458 39.0887C136.751 39.0887 135.734 38.9808 134.398 38.7468C132.218 38.2968 130.33 37.8109 128.742 37.289C128.335 37.136 128.025 36.947 127.802 36.731C127.618 36.5421 127.531 36.3261 127.531 36.0831C127.531 35.9931 127.57 35.8761 127.647 35.7412H123.347C123.463 35.9121 123.531 36.0831 123.531 36.2721C123.531 36.632 123.415 36.902 123.163 37.091C122.698 37.316 121.943 37.5589 120.897 37.8199C119.706 38.1979 118.078 38.5938 116.025 39.0258C115.26 39.2327 114.369 39.3317 113.362 39.3317C112.839 39.3317 112.355 39.1247 111.909 38.7108C111.667 38.4498 111.541 38.0809 111.541 37.6129C111.561 37.271 111.812 36.974 112.297 36.713C114.815 36.3351 116.829 36.0111 118.321 35.7322H116.413C115.105 35.7322 114.447 35.1202 114.447 33.9054V27.8311C114.447 26.6523 115.105 26.0583 116.413 26.0583L116.432 26.0673ZM125.633 11.894C126.398 11.894 126.93 12.029 127.24 12.29C127.56 12.515 127.763 12.7939 127.841 13.1359H137.012C138.872 13.1359 139.802 13.8018 139.802 15.1336V16.3755C139.802 17.0324 139.608 17.4824 139.23 17.7253C138.949 17.9863 138.562 18.1393 138.078 18.1753C138.058 18.3463 138.01 18.4722 137.923 18.5712C137.758 18.7782 137.497 18.8772 137.138 18.8772H133.39V19.7501H138.107C138.494 19.7501 138.765 19.8221 138.92 19.9751C139.085 20.128 139.163 20.389 139.163 20.767C139.163 21.0819 139.104 21.3159 138.979 21.4689C138.775 21.6939 138.485 21.8108 138.097 21.8108H137.913C138.281 22.0358 138.456 22.3328 138.456 22.7107V24.0606C138.456 25.0145 137.797 25.4914 136.48 25.4914H127.018C125.826 25.4914 125.226 24.9785 125.226 23.9436V22.5937C125.226 22.2518 125.352 21.9908 125.623 21.8018C125.303 21.7838 125.052 21.7029 124.868 21.5499C124.684 21.4149 124.596 21.1539 124.596 20.758C124.596 20.443 124.664 20.209 124.809 20.0561C124.567 20.0021 124.354 19.8941 124.18 19.7501C123.822 19.5431 123.638 19.2552 123.638 18.8772V18.7692C123.492 18.8412 123.337 18.8772 123.153 18.8772H120.538V19.9751H122.96C123.299 19.9751 123.56 20.0471 123.744 20.2C123.948 20.308 124.044 20.578 124.044 20.9919C124.044 21.4059 123.986 21.6489 123.86 21.7838C123.657 22.0088 123.357 22.1258 122.95 22.1258H120.529V23.0527L123.521 22.9447C123.967 22.9447 124.296 23.0257 124.519 23.1967C124.742 23.4216 124.848 23.7096 124.848 24.0696C124.848 24.3485 124.78 24.5735 124.635 24.7445C124.451 24.9335 124.209 25.0415 123.909 25.0864L113.497 25.6174C113.052 25.5994 112.742 25.4914 112.558 25.3114C112.374 25.1584 112.287 24.8885 112.287 24.4925C112.306 24.0786 112.413 23.7996 112.616 23.6466C112.781 23.4756 113.023 23.3857 113.343 23.3677L117.1 23.1967V22.1258H114.195C113.875 22.1258 113.614 22.0448 113.41 21.8738C113.207 21.7209 113.11 21.4329 113.11 21.0009C113.11 20.605 113.207 20.335 113.41 20.182C113.575 20.0471 113.836 19.9841 114.195 19.9841H117.1V18.8862H113.866C113.527 18.8862 113.246 18.7962 113.052 18.6072C112.887 18.4722 112.8 18.2473 112.781 17.9323C112.597 17.8603 112.452 17.7613 112.326 17.6533C111.958 17.3114 111.783 16.8524 111.783 16.2765V15.1516C111.783 13.8198 112.713 13.1539 114.573 13.1539H123.502C123.599 12.8389 123.783 12.542 124.044 12.281C124.345 12.038 124.868 11.912 125.613 11.912L125.633 11.894ZM124.296 17.9413C125.148 17.2484 125.894 16.4655 126.533 15.6106H116.422C116.083 15.6106 115.909 15.7096 115.909 15.9166V16.7355H123.173C123.541 16.7355 123.812 16.7984 123.986 16.9334C124.19 17.0414 124.286 17.3204 124.286 17.7523V17.9503L124.296 17.9413ZM118.572 28.767H132.887V28.1731C132.887 28.0201 132.8 27.9481 132.616 27.9481H118.844C118.66 27.9481 118.572 28.0201 118.572 28.1731V28.767ZM118.572 31.3587H132.887V30.4318H118.572V31.3587ZM132.616 33.8064C132.8 33.8064 132.887 33.7434 132.887 33.6084V33.0145H118.572V33.6084C118.572 33.7434 118.66 33.8064 118.844 33.8064H132.616ZM130.223 19.7501V18.8772H127.434V18.5082C127.066 18.9222 126.708 19.2552 126.349 19.5161C126.311 19.6061 126.262 19.6871 126.194 19.7411H130.223V19.7501ZM128.044 21.8018C128.267 22.0088 128.374 22.2698 128.374 22.5937V23.3497C128.374 23.4216 128.451 23.4576 128.616 23.4576H130.214V21.8018H128.035H128.044ZM128.645 16.9604H135.666V15.9166C135.666 15.7096 135.453 15.6106 135.027 15.6106H129.216C129.235 15.6826 129.245 15.7546 129.245 15.8086C129.245 16.0155 129.1 16.3125 128.819 16.7085C128.761 16.7984 128.703 16.8884 128.635 16.9604H128.645ZM133.371 23.4576H134.814C135.143 23.4576 135.308 23.4216 135.308 23.3497V22.7017C135.308 22.3418 135.492 22.0538 135.85 21.8288L135.908 21.8018H133.371V23.4576Z" fill="white"/>
</mask>
<g mask="url(#mask1_32_10930)">
<path d="M135.918 21.7944H133.381V22.0831H135.918V21.7944Z" fill="white"/>
<path d="M135.918 22.0835H133.381V22.3902H135.918V22.0835Z" fill="white"/>
<path d="M135.918 22.3896H133.381V22.6963H135.918V22.3896Z" fill="white"/>
<path d="M135.918 22.6924H133.381V22.9991H135.918V22.6924Z" fill="white"/>
<path d="M135.918 22.998H133.381V23.3047H135.918V22.998Z" fill="white"/>
<path d="M135.918 23.3062H133.381V23.4495H135.918V23.3062Z" fill="white"/>
<path d="M135.686 15.6147H128.664V16.9663H135.686V15.6147Z" fill="white"/>
<path d="M130.233 21.7944H128.054V22.0831H130.233V21.7944Z" fill="white"/>
<path d="M130.233 22.0835H128.054V22.3902H130.233V22.0835Z" fill="white"/>
<path d="M130.233 22.3896H128.054V22.6963H130.233V22.3896Z" fill="white"/>
<path d="M130.233 22.6924H128.054V22.9991H130.233V22.6924Z" fill="white"/>
<path d="M130.233 22.998H128.054V23.3047H130.233V22.998Z" fill="white"/>
<path d="M130.233 23.3062H128.054V23.4495H130.233V23.3062Z" fill="white"/>
<path d="M130.243 18.5151H126.214V19.7585H130.243V18.5151Z" fill="white"/>
<path d="M132.896 33.0161H118.582V33.1326H132.896V33.0161Z" fill="white"/>
<path d="M132.896 33.1338H118.582V33.4405H132.896V33.1338Z" fill="white"/>
<path d="M132.896 33.439H118.582V33.7456H132.896V33.439Z" fill="white"/>
<path d="M132.896 33.7437H118.582V33.7976H132.896V33.7437Z" fill="white"/>
<path d="M132.896 30.4326H118.582V30.6762H132.896V30.4326Z" fill="white"/>
<path d="M132.896 30.6753H118.582V30.982H132.896V30.6753Z" fill="white"/>
<path d="M132.896 30.98H118.582V31.2867H132.896V30.98Z" fill="white"/>
<path d="M132.896 31.2881H118.582V31.3508H132.896V31.2881Z" fill="white"/>
<path d="M132.896 27.9585H118.582V28.2291H132.896V27.9585Z" fill="white"/>
<path d="M132.896 28.2202H118.582V28.5269H132.896V28.2202Z" fill="white"/>
<path d="M132.896 28.5239H118.582V28.7675H132.896V28.5239Z" fill="white"/>
<path d="M126.543 15.6099H115.919V17.9435H126.543V15.6099Z" fill="white"/>
<path d="M139.802 11.894H111.803V19.9301H139.802V11.894Z" fill="white"/>
<path d="M139.802 19.9399H111.803V20.2466H139.802V19.9399Z" fill="white"/>
<path d="M139.802 20.2466H111.803V20.5533H139.802V20.2466Z" fill="white"/>
<path d="M139.802 20.5532H111.803V20.8599H139.802V20.5532Z" fill="white"/>
<path d="M139.802 20.856H111.803V21.1626H139.802V20.856Z" fill="white"/>
<path d="M139.802 21.1592H111.803V21.4659H139.802V21.1592Z" fill="white"/>
<path d="M139.802 21.4712H111.803V21.7779H139.802V21.4712Z" fill="white"/>
<path d="M139.802 21.7759H111.803V22.0826H139.802V21.7759Z" fill="white"/>
<path d="M139.802 22.0835H111.803V22.3902H139.802V22.0835Z" fill="white"/>
<path d="M139.802 22.3896H111.803V22.6963H139.802V22.3896Z" fill="white"/>
<path d="M139.802 22.6924H111.803V22.9991H139.802V22.6924Z" fill="white"/>
<path d="M139.802 22.998H111.803V23.3047H139.802V22.998Z" fill="white"/>
<path d="M139.802 23.3062H111.803V23.6128H139.802V23.3062Z" fill="white"/>
<path d="M139.802 23.6118H111.803V23.9185H139.802V23.6118Z" fill="white"/>
<path d="M139.802 23.917H111.803V24.2237H139.802V23.917Z" fill="white"/>
<path d="M139.802 24.2319H111.803V24.5386H139.802V24.2319Z" fill="white"/>
<path d="M139.802 24.5376H111.803V24.8443H139.802V24.5376Z" fill="white"/>
<path d="M139.802 24.8438H111.803V25.1504H139.802V24.8438Z" fill="white"/>
<path d="M139.802 25.1519H111.803V25.4585H139.802V25.1519Z" fill="white"/>
<path d="M139.802 25.4561H111.803V25.5905H139.802V25.4561Z" fill="white"/>
<path d="M139.676 26.0674H111.561V26.3741H139.676V26.0674Z" fill="white"/>
<path d="M139.676 26.3745H111.561V26.6812H139.676V26.3745Z" fill="white"/>
<path d="M139.676 26.6812H111.561V26.9878H139.676V26.6812Z" fill="white"/>
<path d="M139.676 26.9951H111.561V27.3018H139.676V26.9951Z" fill="white"/>
<path d="M139.676 27.3013H111.561V27.6079H139.676V27.3013Z" fill="white"/>
<path d="M139.676 27.6079H111.561V27.9146H139.676V27.6079Z" fill="white"/>
<path d="M139.676 27.9121H111.561V28.2188H139.676V27.9121Z" fill="white"/>
<path d="M139.676 28.2202H111.561V28.5269H139.676V28.2202Z" fill="white"/>
<path d="M139.676 28.5239H111.561V28.8306H139.676V28.5239Z" fill="white"/>
<path d="M139.676 28.8301H111.561V29.1368H139.676V28.8301Z" fill="white"/>
<path d="M139.676 29.1367H111.561V29.4434H139.676V29.1367Z" fill="white"/>
<path d="M139.676 29.4507H111.561V29.7574H139.676V29.4507Z" fill="white"/>
<path d="M139.676 29.7578H111.561V30.0645H139.676V29.7578Z" fill="white"/>
<path d="M139.676 30.0645H111.561V30.3711H139.676V30.0645Z" fill="white"/>
<path d="M139.676 30.3701H111.561V30.6768H139.676V30.3701Z" fill="white"/>
<path d="M139.676 30.6753H111.561V30.982H139.676V30.6753Z" fill="white"/>
<path d="M139.676 30.98H111.561V31.2867H139.676V30.98Z" fill="white"/>
<path d="M139.676 31.2881H111.561V31.5948H139.676V31.2881Z" fill="white"/>
<path d="M139.676 31.5923H111.561V31.899H139.676V31.5923Z" fill="white"/>
<path d="M139.676 31.8999H111.561V32.2066H139.676V31.8999Z" fill="white"/>
<path d="M139.676 32.2134H111.561V32.5201H139.676V32.2134Z" fill="white"/>
<path d="M139.676 32.52H111.561V32.8267H139.676V32.52Z" fill="white"/>
<path d="M139.676 32.8257H111.561V33.1324H139.676V32.8257Z" fill="white"/>
<path d="M139.676 33.1338H111.561V33.4405H139.676V33.1338Z" fill="white"/>
<path d="M139.676 33.439H111.561V33.7456H139.676V33.439Z" fill="white"/>
<path d="M139.676 33.7437H111.561V34.0503H139.676V33.7437Z" fill="white"/>
<path d="M139.676 34.0508H111.561V34.3575H139.676V34.0508Z" fill="white"/>
<path d="M139.676 34.356H111.561V34.6626H139.676V34.356Z" fill="white"/>
<path d="M139.676 34.6719H111.561V34.9786H139.676V34.6719Z" fill="white"/>
<path d="M139.676 34.9775H111.561V35.2842H139.676V34.9775Z" fill="white"/>
<path d="M139.676 35.2832H111.561V35.5899H139.676V35.2832Z" fill="white"/>
<path d="M139.676 35.5879H111.561V35.8946H139.676V35.5879Z" fill="white"/>
<path d="M139.676 35.8931H111.561V39.344H139.676V35.8931Z" fill="white"/>
</g>
<mask id="mask2_32_10930" style="mask-type:luminance" maskUnits="userSpaceOnUse" x="142" y="12" width="30" height="27">
<path d="M149.216 12.4282C149.923 12.4282 150.513 12.5901 150.998 12.9051C151.501 13.0761 151.753 13.526 151.753 14.2549C151.753 14.6509 151.685 15.0288 151.54 15.4068C151.114 16.8916 150.591 18.3044 149.971 19.6543V36.6082C149.971 37.2652 149.777 37.7151 149.4 37.9581C149.099 38.273 148.596 38.435 147.889 38.435C147.259 38.435 146.804 38.273 146.494 37.9581C146.155 37.7151 145.981 37.2652 145.981 36.6082V26.1155C145.942 26.1695 145.903 26.2235 145.865 26.2865C145.603 26.6464 145.158 26.8174 144.528 26.8174C143.821 26.8174 143.279 26.6464 142.891 26.3135C142.523 25.9985 142.349 25.5756 142.349 25.0446C142.349 24.6667 142.494 24.2437 142.775 23.7758C144.915 20.9681 146.62 17.5485 147.889 13.535C148.111 12.7881 148.557 12.4102 149.225 12.4102L149.216 12.4282ZM155.181 13.2471H167.259C168.808 13.2471 169.593 13.958 169.593 15.3888V21.3461C169.593 22.7499 168.818 23.4518 167.259 23.4518H163.055V25.2786H168.953C169.622 25.2786 170.106 25.3866 170.406 25.6206C170.668 25.8095 170.803 26.2145 170.803 26.8264C170.803 27.3484 170.687 27.7353 170.474 27.9783C170.135 28.3562 169.622 28.5362 168.963 28.5362H164.876C166.513 30.408 168.363 32.1628 170.445 33.7916C170.832 34.0345 171.016 34.4215 171.016 34.9434C171.016 35.4114 170.852 35.7893 170.532 36.0683C170.193 36.5002 169.622 36.7162 168.837 36.7162C168.334 36.7162 167.859 36.5812 167.414 36.3203C167.094 36.1853 166.755 35.9333 166.416 35.5644C165.244 34.4215 164.121 33.1257 163.055 31.6858V36.4912C163.055 37.1662 162.871 37.6431 162.513 37.9221C162.193 38.264 161.67 38.426 160.973 38.426C160.305 38.426 159.791 38.255 159.433 37.9221C159.114 37.6431 158.949 37.1662 158.949 36.4912V31.6498C157.884 33.1527 156.586 34.6195 155.075 36.0683C154.407 36.5902 153.709 36.8602 152.983 36.8602C152.383 36.7882 151.869 36.5812 151.472 36.2393C151.104 35.9243 150.93 35.5194 150.93 35.0334C150.93 34.8085 151.056 34.4755 151.327 34.0255C153.806 32.0728 155.666 30.246 156.896 28.5452H152.78C152.15 28.5452 151.695 28.4012 151.385 28.1223C151.085 27.8973 150.93 27.4653 150.93 26.8264C150.93 26.2235 151.085 25.8185 151.385 25.5846C151.666 25.3776 152.131 25.2786 152.78 25.2786H158.959V23.4518H155.201C153.671 23.4518 152.896 22.7499 152.896 21.3461V15.3888C152.896 13.967 153.661 13.2471 155.201 13.2471H155.181ZM164.837 20.3382C165.263 20.3382 165.477 20.1402 165.477 19.7443V16.9636C165.477 16.5677 165.263 16.3697 164.837 16.3697H157.603C157.177 16.3697 156.963 16.5677 156.963 16.9636V19.7443C156.963 20.1402 157.177 20.3382 157.603 20.3382H164.837Z" fill="white"/>
</mask>
<g mask="url(#mask2_32_10930)">
<path d="M165.467 16.3667H156.963V19.9347H165.467V16.3667Z" fill="white"/>
<path d="M165.467 19.9399H156.963V20.2466H165.467V19.9399Z" fill="white"/>
<path d="M165.467 20.248H156.963V20.3466H165.467V20.248Z" fill="white"/>
<path d="M171.007 13.2476H150.91V19.9338H171.007V13.2476Z" fill="white"/>
<path d="M171.007 19.9399H150.91V20.2466H171.007V19.9399Z" fill="white"/>
<path d="M171.007 20.248H150.91V20.5547H171.007V20.248Z" fill="white"/>
<path d="M171.007 20.5518H150.91V20.8584H171.007V20.5518Z" fill="white"/>
<path d="M171.007 20.8569H150.91V21.1636H171.007V20.8569Z" fill="white"/>
<path d="M171.007 21.1606H150.91V21.4673H171.007V21.1606Z" fill="white"/>
<path d="M171.007 21.4731H150.91V21.7798H171.007V21.4731Z" fill="white"/>
<path d="M171.007 21.7773H150.91V22.084H171.007V21.7773Z" fill="white"/>
<path d="M171.007 22.0845H150.91V22.3911H171.007V22.0845Z" fill="white"/>
<path d="M171.007 22.3901H150.91V22.6968H171.007V22.3901Z" fill="white"/>
<path d="M171.007 22.6958H150.91V23.0025H171.007V22.6958Z" fill="white"/>
<path d="M171.007 22.998H150.91V23.3047H171.007V22.998Z" fill="white"/>
<path d="M171.007 23.3066H150.91V23.6133H171.007V23.3066Z" fill="white"/>
<path d="M171.007 23.6118H150.91V23.9185H171.007V23.6118Z" fill="white"/>
<path d="M171.007 23.9189H150.91V24.2256H171.007V23.9189Z" fill="white"/>
<path d="M171.007 24.2319H150.91V24.5386H171.007V24.2319Z" fill="white"/>
<path d="M171.007 24.54H150.91V24.8467H171.007V24.54Z" fill="white"/>
<path d="M171.007 24.8438H150.91V25.1504H171.007V24.8438Z" fill="white"/>
<path d="M171.007 25.1523H150.91V25.459H171.007V25.1523Z" fill="white"/>
<path d="M171.007 25.4556H150.91V25.7622H171.007V25.4556Z" fill="white"/>
<path d="M171.007 25.7622H150.91V26.0689H171.007V25.7622Z" fill="white"/>
<path d="M171.007 26.0674H150.91V26.3741H171.007V26.0674Z" fill="white"/>
<path d="M171.007 26.3745H150.91V26.6812H171.007V26.3745Z" fill="white"/>
<path d="M171.007 26.6812H150.91V26.9878H171.007V26.6812Z" fill="white"/>
<path d="M171.007 26.9951H150.91V27.3018H171.007V26.9951Z" fill="white"/>
<path d="M171.007 27.3027H150.91V27.6094H171.007V27.3027Z" fill="white"/>
<path d="M171.007 27.6079H150.91V27.9146H171.007V27.6079Z" fill="white"/>
<path d="M171.007 27.9136H150.91V28.2203H171.007V27.9136Z" fill="white"/>
<path d="M171.007 28.2202H150.91V28.5269H171.007V28.2202Z" fill="white"/>
<path d="M171.007 28.5239H150.91V28.8306H171.007V28.5239Z" fill="white"/>
<path d="M171.007 28.8301H150.91V29.1368H171.007V28.8301Z" fill="white"/>
<path d="M171.007 29.1367H150.91V29.4434H171.007V29.1367Z" fill="white"/>
<path d="M171.007 29.4507H150.91V29.7574H171.007V29.4507Z" fill="white"/>
<path d="M171.007 29.7578H150.91V30.0645H171.007V29.7578Z" fill="white"/>
<path d="M171.007 30.0645H150.91V30.3711H171.007V30.0645Z" fill="white"/>
<path d="M171.007 30.3711H150.91V30.6778H171.007V30.3711Z" fill="white"/>
<path d="M171.007 30.6763H150.91V30.9829H171.007V30.6763Z" fill="white"/>
<path d="M171.007 30.9814H150.91V31.2881H171.007V30.9814Z" fill="white"/>
<path d="M171.007 31.2886H150.91V31.5953H171.007V31.2886Z" fill="white"/>
<path d="M171.007 31.5933H150.91V31.8999H171.007V31.5933Z" fill="white"/>
<path d="M171.007 31.8999H150.91V32.2066H171.007V31.8999Z" fill="white"/>
<path d="M171.007 32.2134H150.91V32.5201H171.007V32.2134Z" fill="white"/>
<path d="M171.007 32.52H150.91V32.8267H171.007V32.52Z" fill="white"/>
<path d="M171.007 32.8262H150.91V33.1328H171.007V32.8262Z" fill="white"/>
<path d="M171.007 33.1338H150.91V33.4405H171.007V33.1338Z" fill="white"/>
<path d="M171.007 33.4395H150.91V33.7461H171.007V33.4395Z" fill="white"/>
<path d="M171.007 33.7437H150.91V34.0503H171.007V33.7437Z" fill="white"/>
<path d="M171.007 34.0503H150.91V34.357H171.007V34.0503Z" fill="white"/>
<path d="M171.007 34.356H150.91V34.6626H171.007V34.356Z" fill="white"/>
<path d="M171.007 34.6714H150.91V34.9781H171.007V34.6714Z" fill="white"/>
<path d="M171.007 34.979H150.91V35.2857H171.007V34.979Z" fill="white"/>
<path d="M171.007 35.2832H150.91V35.5899H171.007V35.2832Z" fill="white"/>
<path d="M171.007 35.5894H150.91V35.896H171.007V35.5894Z" fill="white"/>
<path d="M171.007 35.8931H150.91V38.443H171.007V35.8931Z" fill="white"/>
<path d="M151.754 12.4253H142.34V19.9214H151.754V12.4253Z" fill="white"/>
<path d="M151.753 19.9399H142.339V20.2466H151.753V19.9399Z" fill="white"/>
<path d="M151.753 20.248H142.339V20.5547H151.753V20.248Z" fill="white"/>
<path d="M151.753 20.5518H142.339V20.8584H151.753V20.5518Z" fill="white"/>
<path d="M151.753 20.8569H142.339V21.1636H151.753V20.8569Z" fill="white"/>
<path d="M151.753 21.1606H142.339V21.4673H151.753V21.1606Z" fill="white"/>
<path d="M151.753 21.4731H142.339V21.7798H151.753V21.4731Z" fill="white"/>
<path d="M151.753 21.7773H142.339V22.084H151.753V21.7773Z" fill="white"/>
<path d="M151.753 22.0845H142.339V22.3911H151.753V22.0845Z" fill="white"/>
<path d="M151.753 22.3901H142.339V22.6968H151.753V22.3901Z" fill="white"/>
<path d="M151.753 22.6958H142.339V23.0025H151.753V22.6958Z" fill="white"/>
<path d="M151.753 22.998H142.339V23.3047H151.753V22.998Z" fill="white"/>
<path d="M151.753 23.3066H142.339V23.6133H151.753V23.3066Z" fill="white"/>
<path d="M151.753 23.6118H142.339V23.9185H151.753V23.6118Z" fill="white"/>
<path d="M151.753 23.9189H142.339V24.2256H151.753V23.9189Z" fill="white"/>
<path d="M151.753 24.2319H142.339V24.5386H151.753V24.2319Z" fill="white"/>
<path d="M151.753 24.54H142.339V24.8467H151.753V24.54Z" fill="white"/>
<path d="M151.753 24.8438H142.339V25.1504H151.753V24.8438Z" fill="white"/>
<path d="M151.753 25.1523H142.339V25.459H151.753V25.1523Z" fill="white"/>
<path d="M151.753 25.4556H142.339V25.7622H151.753V25.4556Z" fill="white"/>
<path d="M151.753 25.7622H142.339V26.0689H151.753V25.7622Z" fill="white"/>
<path d="M151.753 26.0674H142.339V26.3741H151.753V26.0674Z" fill="white"/>
<path d="M151.753 26.3745H142.339V26.6812H151.753V26.3745Z" fill="white"/>
<path d="M151.753 26.6812H142.339V26.9878H151.753V26.6812Z" fill="white"/>
<path d="M151.753 26.9951H142.339V27.3018H151.753V26.9951Z" fill="white"/>
<path d="M151.753 27.3027H142.339V27.6094H151.753V27.3027Z" fill="white"/>
<path d="M151.753 27.6079H142.339V27.9146H151.753V27.6079Z" fill="white"/>
<path d="M151.753 27.9136H142.339V28.2203H151.753V27.9136Z" fill="white"/>
<path d="M151.753 28.2202H142.339V28.5269H151.753V28.2202Z" fill="white"/>
<path d="M151.753 28.5239H142.339V28.8306H151.753V28.5239Z" fill="white"/>
<path d="M151.753 28.8301H142.339V29.1368H151.753V28.8301Z" fill="white"/>
<path d="M151.753 29.1367H142.339V29.4434H151.753V29.1367Z" fill="white"/>
<path d="M151.753 29.4507H142.339V29.7574H151.753V29.4507Z" fill="white"/>
<path d="M151.753 29.7578H142.339V30.0645H151.753V29.7578Z" fill="white"/>
<path d="M151.753 30.0645H142.339V30.3711H151.753V30.0645Z" fill="white"/>
<path d="M151.753 30.3711H142.339V30.6778H151.753V30.3711Z" fill="white"/>
<path d="M151.753 30.6763H142.339V30.9829H151.753V30.6763Z" fill="white"/>
<path d="M151.753 30.9814H142.339V31.2881H151.753V30.9814Z" fill="white"/>
<path d="M151.753 31.2886H142.339V31.5953H151.753V31.2886Z" fill="white"/>
<path d="M151.753 31.5933H142.339V31.8999H151.753V31.5933Z" fill="white"/>
<path d="M151.753 31.8999H142.339V32.2066H151.753V31.8999Z" fill="white"/>
<path d="M151.753 32.2134H142.339V32.5201H151.753V32.2134Z" fill="white"/>
<path d="M151.753 32.52H142.339V32.8267H151.753V32.52Z" fill="white"/>
<path d="M151.753 32.8262H142.339V33.1328H151.753V32.8262Z" fill="white"/>
<path d="M151.753 33.1338H142.339V33.4405H151.753V33.1338Z" fill="white"/>
<path d="M151.753 33.4395H142.339V33.7461H151.753V33.4395Z" fill="white"/>
<path d="M151.753 33.7437H142.339V34.0503H151.753V33.7437Z" fill="white"/>
<path d="M151.753 34.0503H142.339V34.357H151.753V34.0503Z" fill="white"/>
<path d="M151.753 34.356H142.339V34.6626H151.753V34.356Z" fill="white"/>
<path d="M151.753 34.6714H142.339V34.9781H151.753V34.6714Z" fill="white"/>
<path d="M151.753 34.979H142.339V35.2857H151.753V34.979Z" fill="white"/>
<path d="M151.753 35.2832H142.339V35.5899H151.753V35.2832Z" fill="white"/>
<path d="M151.753 35.5894H142.339V35.896H151.753V35.5894Z" fill="white"/>
<path d="M151.753 35.8931H142.339V38.443H151.753V35.8931Z" fill="white"/>
</g>
<mask id="mask3_32_10930" style="mask-type:luminance" maskUnits="userSpaceOnUse" x="174" y="12" width="29" height="27">
<path d="M181.902 13.55C183.21 13.55 183.868 14.1979 183.868 15.4847C183.868 16.4386 183.771 17.5095 183.568 18.7063C183.626 18.6704 183.684 18.6344 183.752 18.5984C186.338 16.7086 188.614 14.8368 190.589 12.965C191.219 12.4071 191.926 12.1191 192.71 12.1191C193.495 12.1191 194.367 12.5691 195.316 13.469C196.672 14.7738 198.744 16.4116 201.553 18.3734C202.018 18.6524 202.25 19.0303 202.25 19.4983C202.25 20.1912 202.076 20.7311 201.737 21.1271C201.33 21.559 200.826 21.775 200.226 21.775C199.78 21.775 199.228 21.541 198.56 21.0731C198.299 20.9021 198.047 20.7311 197.805 20.5421C197.766 20.6771 197.708 20.7761 197.621 20.8481C197.34 21.163 196.914 21.325 196.352 21.325H189.543C189.04 21.325 188.643 21.208 188.362 20.9561C188.159 20.8031 188.042 20.5601 187.994 20.2272C187.432 20.7311 186.909 21.163 186.454 21.514C185.97 21.811 185.582 21.964 185.301 21.964C184.614 21.964 184.013 21.712 183.481 21.208C183.365 21.0191 183.258 20.8301 183.18 20.6231C182.958 21.559 182.706 22.5309 182.425 23.5478C183.452 25.6445 183.965 27.6333 183.965 29.505C183.965 31.3768 183.694 32.5647 183.151 33.3296C182.59 34.3195 181.689 34.8234 180.459 34.8234C179.568 34.8234 178.764 34.6794 178.038 34.4005V36.9561C177.98 37.802 177.408 38.252 176.343 38.306C175.278 38.252 174.716 37.802 174.677 36.9561V15.3767C174.677 14.1619 175.161 13.559 176.13 13.559H181.912L181.902 13.55ZM178.028 31.0709C178.493 31.1788 178.9 31.2418 179.239 31.2418C179.839 31.2418 180.256 30.9359 180.478 30.3149C180.643 29.937 180.721 29.3161 180.721 28.4342C180.721 27.3273 180.285 26.0945 179.423 24.7266C179.219 24.3667 179.123 24.0337 179.123 23.7187C179.123 23.3228 179.19 22.9988 179.336 22.7379C180.159 20.7671 180.575 18.9133 180.575 17.1675C180.575 17.0325 180.498 16.9696 180.333 16.9696H178.028V31.0889V31.0709ZM186.415 22.6929H190.619C191.849 22.6929 192.468 23.2418 192.468 24.3487V29.2981C192.468 30.4409 191.849 31.0169 190.619 31.0169H189.195L189.253 31.0439C189.621 31.2688 189.795 31.5928 189.795 32.0247C189.795 32.2497 189.737 32.4837 189.611 32.7267C190.096 33.1226 190.648 33.6805 191.277 34.4184C191.703 34.9404 192.003 35.3543 192.187 35.6603C192.933 35.2464 193.543 34.7694 194.008 34.2295C194.512 33.6715 194.928 32.8886 195.248 31.8988C195.345 31.4848 195.529 31.1968 195.79 31.0259H195.364C194.134 31.0259 193.514 30.4499 193.514 29.3071V24.3577C193.514 23.2508 194.124 22.7019 195.364 22.7019H199.567C200.797 22.7019 201.417 23.2508 201.417 24.3577V29.3071C201.417 30.4499 200.797 31.0259 199.567 31.0259H197.843C197.94 31.0799 198.027 31.1248 198.086 31.1698C198.425 31.3948 198.599 31.7188 198.599 32.1507C198.599 32.3937 198.55 32.6547 198.444 32.9426C198.405 33.0776 198.357 33.2036 198.289 33.3386C199.257 34.2745 200.332 35.1564 201.524 35.9843C201.911 36.2992 202.095 36.6412 202.095 36.9921C202.095 37.3701 201.901 37.7211 201.524 38.063C201.185 38.405 200.642 38.5669 199.916 38.5669C199.577 38.5669 199.219 38.414 198.86 38.117C198.618 38.027 197.969 37.3791 196.923 36.1732C196.865 36.1192 196.827 36.0653 196.807 36.0293C196.023 36.9831 195.151 37.748 194.202 38.306C193.921 38.477 193.65 38.558 193.388 38.558C192.846 38.558 192.352 38.324 191.907 37.856C191.81 37.748 191.723 37.6311 191.664 37.5141C191.277 37.7391 190.851 37.856 190.367 37.856C189.786 37.856 189.379 37.6761 189.156 37.3251C188.836 36.7042 188.468 36.1102 188.071 35.5253C188.052 35.5973 188.023 35.6603 187.984 35.6963C187.054 36.7672 186.028 37.5951 184.895 38.198C184.556 38.369 184.236 38.45 183.955 38.45C183.374 38.45 182.851 38.207 182.415 37.7211C182.076 37.3791 181.902 37.0191 181.902 36.6232C181.902 36.0833 182.115 35.6693 182.541 35.3813C183.49 35.0034 184.275 34.5444 184.904 34.0045C185.553 33.4466 186.057 32.6997 186.415 31.7818C186.493 31.4218 186.628 31.1698 186.812 31.0259H186.415C185.205 31.0259 184.594 30.4499 184.594 29.3071V24.3577C184.594 23.2508 185.195 22.7019 186.415 22.7019V22.6929ZM188.836 28.2902C189.224 28.2902 189.408 28.1102 189.408 27.7593V25.9325C189.408 25.5725 189.214 25.4015 188.836 25.4015H188.197C187.81 25.4015 187.626 25.5815 187.626 25.9325V27.7593C187.626 28.1192 187.82 28.2902 188.197 28.2902H188.836ZM189.96 18.3914H195.258C194.531 17.7165 193.805 16.9966 193.078 16.2226C192.894 16.0157 192.778 15.9167 192.71 15.9167C192.526 15.9167 192.323 15.9977 192.11 16.1687C191.345 16.9966 190.628 17.7345 189.96 18.3914ZM197.795 28.2902C198.182 28.2902 198.366 28.1102 198.366 27.7593V25.9325C198.366 25.5725 198.173 25.4015 197.795 25.4015H197.156C196.768 25.4015 196.584 25.5815 196.584 25.9325V27.7593C196.584 28.1192 196.778 28.2902 197.156 28.2902H197.795Z" fill="white"/>
</mask>
<g mask="url(#mask3_32_10930)">
<path d="M198.357 25.3926H196.575V25.4553H198.357V25.3926Z" fill="white"/>
<path d="M198.357 25.4561H196.575V25.7627H198.357V25.4561Z" fill="white"/>
<path d="M198.357 25.7607H196.575V26.0674H198.357V25.7607Z" fill="white"/>
<path d="M198.357 26.0679H196.575V26.3745H198.357V26.0679Z" fill="white"/>
<path d="M198.357 26.374H196.575V26.6807H198.357V26.374Z" fill="white"/>
<path d="M198.357 26.6812H196.575V26.9878H198.357V26.6812Z" fill="white"/>
<path d="M198.357 26.9951H196.575V27.3018H198.357V26.9951Z" fill="white"/>
<path d="M198.357 27.3022H196.575V27.6089H198.357V27.3022Z" fill="white"/>
<path d="M198.357 27.6074H196.575V27.9141H198.357V27.6074Z" fill="white"/>
<path d="M198.357 27.9116H196.575V28.2183H198.357V27.9116Z" fill="white"/>
<path d="M198.357 28.2207H196.575V28.2924H198.357V28.2207Z" fill="white"/>
<path d="M195.248 15.916H189.95V18.3938H195.248V15.916Z" fill="white"/>
<path d="M189.398 25.3926H187.616V25.4553H189.398V25.3926Z" fill="white"/>
<path d="M189.398 25.4561H187.616V25.7627H189.398V25.4561Z" fill="white"/>
<path d="M189.398 25.7607H187.616V26.0674H189.398V25.7607Z" fill="white"/>
<path d="M189.398 26.0679H187.616V26.3745H189.398V26.0679Z" fill="white"/>
<path d="M189.398 26.374H187.616V26.6807H189.398V26.374Z" fill="white"/>
<path d="M189.398 26.6812H187.616V26.9878H189.398V26.6812Z" fill="white"/>
<path d="M189.398 26.9951H187.616V27.3018H189.398V26.9951Z" fill="white"/>
<path d="M189.398 27.3022H187.616V27.6089H189.398V27.3022Z" fill="white"/>
<path d="M189.398 27.6074H187.616V27.9141H189.398V27.6074Z" fill="white"/>
<path d="M189.398 27.9116H187.616V28.2183H189.398V27.9116Z" fill="white"/>
<path d="M189.398 28.2207H187.616V28.2924H189.398V28.2207Z" fill="white"/>
<path d="M202.124 22.6929H181.902V22.9995H202.124V22.6929Z" fill="white"/>
<path d="M202.124 22.998H181.902V23.3047H202.124V22.998Z" fill="white"/>
<path d="M202.124 23.3062H181.902V23.6128H202.124V23.3062Z" fill="white"/>
<path d="M202.124 23.6118H181.902V23.9185H202.124V23.6118Z" fill="white"/>
<path d="M202.124 23.9185H181.902V24.2251H202.124V23.9185Z" fill="white"/>
<path d="M202.124 24.2324H181.902V24.5391H202.124V24.2324Z" fill="white"/>
<path d="M202.124 24.5376H181.902V24.8443H202.124V24.5376Z" fill="white"/>
<path d="M202.124 24.8442H181.902V25.1509H202.124V24.8442Z" fill="white"/>
<path d="M202.124 25.1523H181.902V25.459H202.124V25.1523Z" fill="white"/>
<path d="M202.124 25.4561H181.902V25.7627H202.124V25.4561Z" fill="white"/>
<path d="M202.124 25.7607H181.902V26.0674H202.124V25.7607Z" fill="white"/>
<path d="M202.124 26.0679H181.902V26.3745H202.124V26.0679Z" fill="white"/>
<path d="M202.124 26.374H181.902V26.6807H202.124V26.374Z" fill="white"/>
<path d="M202.124 26.6812H181.902V26.9878H202.124V26.6812Z" fill="white"/>
<path d="M202.124 26.9951H181.902V27.3018H202.124V26.9951Z" fill="white"/>
<path d="M202.124 27.3022H181.902V27.6089H202.124V27.3022Z" fill="white"/>
<path d="M202.124 27.6074H181.902V27.9141H202.124V27.6074Z" fill="white"/>
<path d="M202.124 27.9116H181.902V28.2183H202.124V27.9116Z" fill="white"/>
<path d="M202.124 28.2207H181.902V28.5274H202.124V28.2207Z" fill="white"/>
<path d="M202.124 28.5239H181.902V28.8306H202.124V28.5239Z" fill="white"/>
<path d="M202.124 28.8306H181.902V29.1372H202.124V28.8306Z" fill="white"/>
<path d="M202.124 29.1348H181.902V29.4414H202.124V29.1348Z" fill="white"/>
<path d="M202.124 29.4512H181.902V29.7578H202.124V29.4512Z" fill="white"/>
<path d="M202.124 29.7583H181.902V30.065H202.124V29.7583Z" fill="white"/>
<path d="M202.124 30.0645H181.902V30.3711H202.124V30.0645Z" fill="white"/>
<path d="M202.124 30.3706H181.902V30.6773H202.124V30.3706Z" fill="white"/>
<path d="M202.124 30.6758H181.902V30.9825H202.124V30.6758Z" fill="white"/>
<path d="M202.124 30.9805H181.902V31.2871H202.124V30.9805Z" fill="white"/>
<path d="M202.124 31.2886H181.902V31.5953H202.124V31.2886Z" fill="white"/>
<path d="M202.124 31.5923H181.902V31.899H202.124V31.5923Z" fill="white"/>
<path d="M202.124 31.8994H181.902V32.2061H202.124V31.8994Z" fill="white"/>
<path d="M202.124 32.2134H181.902V32.5201H202.124V32.2134Z" fill="white"/>
<path d="M202.124 32.52H181.902V32.8267H202.124V32.52Z" fill="white"/>
<path d="M202.124 32.8262H181.902V33.1328H202.124V32.8262Z" fill="white"/>
<path d="M202.124 33.1338H181.902V33.4405H202.124V33.1338Z" fill="white"/>
<path d="M202.124 33.439H181.902V33.7456H202.124V33.439Z" fill="white"/>
<path d="M202.124 33.7441H181.902V34.0508H202.124V33.7441Z" fill="white"/>
<path d="M202.124 34.0488H181.902V34.3555H202.124V34.0488Z" fill="white"/>
<path d="M202.124 34.3564H181.902V34.6631H202.124V34.3564Z" fill="white"/>
<path d="M202.124 34.6714H181.902V34.9781H202.124V34.6714Z" fill="white"/>
<path d="M202.124 34.978H181.902V35.2847H202.124V34.978Z" fill="white"/>
<path d="M202.124 35.2837H181.902V35.5904H202.124V35.2837Z" fill="white"/>
<path d="M202.124 35.5884H181.902V35.8951H202.124V35.5884Z" fill="white"/>
<path d="M202.124 35.8936H181.902V38.5606H202.124V35.8936Z" fill="white"/>
<path d="M180.721 16.9624H178.028V19.9358H180.721V16.9624Z" fill="white"/>
<path d="M180.721 19.9404H178.028V20.2471H180.721V19.9404Z" fill="white"/>
<path d="M180.721 20.2485H178.028V20.5552H180.721V20.2485Z" fill="white"/>
<path d="M180.721 20.5522H178.028V20.8589H180.721V20.5522Z" fill="white"/>
<path d="M180.721 20.8545H178.028V21.1612H180.721V20.8545Z" fill="white"/>
<path d="M180.721 21.1597H178.028V21.4663H180.721V21.1597Z" fill="white"/>
<path d="M180.721 21.4707H178.028V21.7774H180.721V21.4707Z" fill="white"/>
<path d="M180.721 21.7764H178.028V22.083H180.721V21.7764Z" fill="white"/>
<path d="M180.721 22.0835H178.028V22.3902H180.721V22.0835Z" fill="white"/>
<path d="M180.721 22.3877H178.028V22.6944H180.721V22.3877Z" fill="white"/>
<path d="M180.721 22.6929H178.028V22.9995H180.721V22.6929Z" fill="white"/>
<path d="M180.721 22.998H178.028V23.3047H180.721V22.998Z" fill="white"/>
<path d="M180.721 23.3062H178.028V23.6128H180.721V23.3062Z" fill="white"/>
<path d="M180.721 23.6118H178.028V23.9185H180.721V23.6118Z" fill="white"/>
<path d="M180.721 23.9185H178.028V24.2251H180.721V23.9185Z" fill="white"/>
<path d="M180.721 24.2324H178.028V24.5391H180.721V24.2324Z" fill="white"/>
<path d="M180.721 24.5376H178.028V24.8443H180.721V24.5376Z" fill="white"/>
<path d="M180.721 24.8442H178.028V25.1509H180.721V24.8442Z" fill="white"/>
<path d="M180.721 25.1523H178.028V25.459H180.721V25.1523Z" fill="white"/>
<path d="M180.721 25.4561H178.028V25.7627H180.721V25.4561Z" fill="white"/>
<path d="M180.721 25.7607H178.028V26.0674H180.721V25.7607Z" fill="white"/>
<path d="M180.721 26.0679H178.028V26.3745H180.721V26.0679Z" fill="white"/>
<path d="M180.721 26.374H178.028V26.6807H180.721V26.374Z" fill="white"/>
<path d="M180.721 26.6812H178.028V26.9878H180.721V26.6812Z" fill="white"/>
<path d="M180.721 26.9951H178.028V27.3018H180.721V26.9951Z" fill="white"/>
<path d="M180.721 27.3022H178.028V27.6089H180.721V27.3022Z" fill="white"/>
<path d="M180.721 27.6074H178.028V27.9141H180.721V27.6074Z" fill="white"/>
<path d="M180.721 27.9116H178.028V28.2183H180.721V27.9116Z" fill="white"/>
<path d="M180.721 28.2207H178.028V28.5274H180.721V28.2207Z" fill="white"/>
<path d="M180.721 28.5239H178.028V28.8306H180.721V28.5239Z" fill="white"/>
<path d="M180.721 28.8306H178.028V29.1372H180.721V28.8306Z" fill="white"/>
<path d="M180.721 29.1348H178.028V29.4414H180.721V29.1348Z" fill="white"/>
<path d="M180.721 29.4512H178.028V29.7578H180.721V29.4512Z" fill="white"/>
<path d="M180.721 29.7583H178.028V30.065H180.721V29.7583Z" fill="white"/>
<path d="M180.721 30.0645H178.028V30.3711H180.721V30.0645Z" fill="white"/>
<path d="M180.721 30.3706H178.028V30.6773H180.721V30.3706Z" fill="white"/>
<path d="M180.721 30.6758H178.028V30.9825H180.721V30.6758Z" fill="white"/>
<path d="M180.721 30.9805H178.028V31.242H180.721V30.9805Z" fill="white"/>
<path d="M202.242 12.1191H174.669V19.9302H202.242V12.1191Z" fill="white"/>
<path d="M202.241 19.9404H174.668V20.2471H202.241V19.9404Z" fill="white"/>
<path d="M202.241 20.2485H174.668V20.5552H202.241V20.2485Z" fill="white"/>
<path d="M202.241 20.5522H174.668V20.8589H202.241V20.5522Z" fill="white"/>
<path d="M202.241 20.8545H174.668V21.1612H202.241V20.8545Z" fill="white"/>
<path d="M202.241 21.1597H174.668V21.4663H202.241V21.1597Z" fill="white"/>
<path d="M202.241 21.4707H174.668V21.7774H202.241V21.4707Z" fill="white"/>
<path d="M202.241 21.7764H174.668V22.083H202.241V21.7764Z" fill="white"/>
<path d="M202.241 22.0835H174.668V22.3902H202.241V22.0835Z" fill="white"/>
<path d="M202.241 22.3877H174.668V22.6944H202.241V22.3877Z" fill="white"/>
<path d="M202.241 22.6929H174.668V22.9995H202.241V22.6929Z" fill="white"/>
<path d="M202.241 22.998H174.668V23.3047H202.241V22.998Z" fill="white"/>
<path d="M202.241 23.3062H174.668V23.6128H202.241V23.3062Z" fill="white"/>
<path d="M202.241 23.6118H174.668V23.9185H202.241V23.6118Z" fill="white"/>
<path d="M202.241 23.9185H174.668V24.2251H202.241V23.9185Z" fill="white"/>
<path d="M202.241 24.2324H174.668V24.5391H202.241V24.2324Z" fill="white"/>
<path d="M202.241 24.5376H174.668V24.8443H202.241V24.5376Z" fill="white"/>
<path d="M202.241 24.8442H174.668V25.1509H202.241V24.8442Z" fill="white"/>
<path d="M202.241 25.1523H174.668V25.459H202.241V25.1523Z" fill="white"/>
<path d="M202.241 25.4561H174.668V25.7627H202.241V25.4561Z" fill="white"/>
<path d="M202.241 25.7607H174.668V26.0674H202.241V25.7607Z" fill="white"/>
<path d="M202.241 26.0679H174.668V26.3745H202.241V26.0679Z" fill="white"/>
<path d="M202.241 26.374H174.668V26.6807H202.241V26.374Z" fill="white"/>
<path d="M202.241 26.6812H174.668V26.9878H202.241V26.6812Z" fill="white"/>
<path d="M202.241 26.9951H174.668V27.3018H202.241V26.9951Z" fill="white"/>
<path d="M202.241 27.3022H174.668V27.6089H202.241V27.3022Z" fill="white"/>
<path d="M202.241 27.6074H174.668V27.9141H202.241V27.6074Z" fill="white"/>
<path d="M202.241 27.9116H174.668V28.2183H202.241V27.9116Z" fill="white"/>
<path d="M202.241 28.2207H174.668V28.5274H202.241V28.2207Z" fill="white"/>
<path d="M202.241 28.5239H174.668V28.8306H202.241V28.5239Z" fill="white"/>
<path d="M202.241 28.8306H174.668V29.1372H202.241V28.8306Z" fill="white"/>
<path d="M202.241 29.1348H174.668V29.4414H202.241V29.1348Z" fill="white"/>
<path d="M202.241 29.4512H174.668V29.7578H202.241V29.4512Z" fill="white"/>
<path d="M202.241 29.7583H174.668V30.065H202.241V29.7583Z" fill="white"/>
<path d="M202.241 30.0645H174.668V30.3711H202.241V30.0645Z" fill="white"/>
<path d="M202.241 30.3706H174.668V30.6773H202.241V30.3706Z" fill="white"/>
<path d="M202.241 30.6758H174.668V30.9825H202.241V30.6758Z" fill="white"/>
<path d="M202.241 30.9805H174.668V31.2871H202.241V30.9805Z" fill="white"/>
<path d="M202.241 31.2886H174.668V31.5953H202.241V31.2886Z" fill="white"/>
<path d="M202.241 31.5923H174.668V31.899H202.241V31.5923Z" fill="white"/>
<path d="M202.241 31.8994H174.668V32.2061H202.241V31.8994Z" fill="white"/>
<path d="M202.241 32.2134H174.668V32.5201H202.241V32.2134Z" fill="white"/>
<path d="M202.241 32.52H174.668V32.8267H202.241V32.52Z" fill="white"/>
<path d="M202.241 32.8262H174.668V33.1328H202.241V32.8262Z" fill="white"/>
<path d="M202.241 33.1338H174.668V33.4405H202.241V33.1338Z" fill="white"/>
<path d="M202.241 33.439H174.668V33.7456H202.241V33.439Z" fill="white"/>
<path d="M202.241 33.7441H174.668V34.0508H202.241V33.7441Z" fill="white"/>
<path d="M202.241 34.0488H174.668V34.3555H202.241V34.0488Z" fill="white"/>
<path d="M202.241 34.3564H174.668V34.6631H202.241V34.3564Z" fill="white"/>
<path d="M202.241 34.6714H174.668V34.9781H202.241V34.6714Z" fill="white"/>
<path d="M202.241 34.978H174.668V35.2847H202.241V34.978Z" fill="white"/>
<path d="M202.241 35.2837H174.668V35.5904H202.241V35.2837Z" fill="white"/>
<path d="M202.241 35.5884H174.668V35.8951H202.241V35.5884Z" fill="white"/>
<path d="M202.241 35.8936H174.668V38.3083H202.241V35.8936Z" fill="white"/>
</g>
<mask id="mask4_32_10930" style="mask-type:luminance" maskUnits="userSpaceOnUse" x="204" y="12" width="29" height="27">
<path d="M231.567 13.1377C231.973 13.1377 232.303 13.2277 232.564 13.4167C232.787 13.6237 232.893 13.9746 232.893 14.4876C232.893 15.0005 232.797 15.3335 232.593 15.5045C232.351 15.7114 232.012 15.8104 231.567 15.8104H226.908C227.228 16.0534 227.402 16.3593 227.421 16.7373H230.443C231.412 16.7373 231.896 17.1872 231.896 18.0871V19.518C231.896 20.4179 231.412 20.8678 230.443 20.8678H227.45V21.5697H231.896C232.303 21.5697 232.593 21.6417 232.777 21.7947C232.922 21.9027 232.99 22.1726 232.99 22.5866C232.99 22.8836 232.932 23.1085 232.806 23.2615C232.603 23.4685 232.303 23.5675 231.896 23.5675H219.305C218.937 23.5675 218.666 23.4955 218.492 23.3425C218.327 23.1895 218.25 22.9376 218.25 22.5866C218.25 22.1726 218.327 21.9117 218.492 21.7947C218.657 21.6417 218.928 21.5697 219.305 21.5697H223.819V20.8678H220.797C219.809 20.8678 219.315 20.4179 219.315 19.518V18.0871C219.315 17.1872 219.809 16.7373 220.797 16.7373H223.857C223.896 16.3953 224.041 16.0894 224.284 15.8104H218.841C218.279 15.8104 217.988 16.0804 217.988 16.6293V34.5191C217.988 35.0231 218.269 35.2751 218.841 35.2751H219.48C219.383 35.0861 219.325 34.8701 219.325 34.6271C219.344 34.2852 219.557 34.0152 219.964 33.8082C220.836 33.3403 221.514 32.9353 222.017 32.6024H221.165C219.77 32.6024 219.073 31.9545 219.073 30.6586V26.1862C219.073 24.8903 219.77 24.2424 221.165 24.2424H230.366C231.741 24.2424 232.419 24.8903 232.419 26.1862V30.6586C232.419 31.9545 231.731 32.6024 230.366 32.6024H229.852C230.356 33.1063 230.918 33.5923 231.547 34.0602C231.663 34.1142 231.751 34.1772 231.789 34.2582C231.954 34.3662 232.031 34.5641 232.031 34.8521C232.031 35.0231 231.993 35.1671 231.915 35.302C232.254 35.338 232.525 35.437 232.729 35.581C232.913 35.824 233 36.1749 233 36.6249C233 37.0748 232.922 37.3718 232.758 37.5788C232.496 37.8397 232.128 37.9747 231.673 37.9747H217.175C215.315 37.9747 214.386 37.1108 214.386 35.383V28.3549C214.386 28.3549 214.347 28.3819 214.327 28.3819C214.085 28.6429 213.698 28.7778 213.175 28.7778C212.729 28.7778 212.41 28.5799 212.206 28.1839C212.042 27.545 211.887 26.9331 211.722 26.3571V37.1018C211.722 37.4978 211.606 37.8307 211.354 38.1097C211.054 38.4697 210.56 38.6406 209.872 38.6406C209.311 38.6406 208.875 38.4607 208.575 38.1097C208.332 37.8307 208.207 37.4888 208.207 37.1018V29.0028C207.868 30.5056 207.567 31.4685 207.325 31.9005C207.064 32.2154 206.618 32.3774 205.989 32.3774C205.504 32.3774 205.107 32.1884 204.807 31.8195C204.488 31.4415 204.323 30.9826 204.323 30.4426C204.323 30.0287 204.4 29.5517 204.565 29.0118C205.65 26.7081 206.676 23.9184 207.625 20.6608H206.357C205.834 20.6608 205.398 20.5258 205.059 20.2649C204.72 20.0039 204.546 19.545 204.546 18.888C204.546 18.1771 204.72 17.6822 205.059 17.3942C205.32 17.1693 205.756 17.0523 206.357 17.0523H208.207V14.0466C208.207 13.5427 208.361 13.1557 208.662 12.8948C208.943 12.5978 209.349 12.4448 209.872 12.4448C210.434 12.4448 210.87 12.5978 211.17 12.8948C211.538 13.1557 211.712 13.5427 211.712 14.0466V17.0523H213.049C213.63 17.0523 214.076 17.1872 214.386 17.4482V15.7294C214.386 14.0016 215.315 13.1377 217.175 13.1377H231.586H231.567ZM211.712 20.6428V22.6406C211.993 22.5326 212.303 22.4696 212.652 22.4696C212.855 22.4696 213.02 22.5416 213.165 22.6946C213.369 22.9915 213.591 23.4595 213.833 24.0984C214.037 24.6833 214.221 25.1963 214.376 25.6462V20.2739C214.056 20.5168 213.611 20.6428 213.039 20.6428H211.703H211.712ZM223.819 19.32V18.2761H222.608C222.366 18.2761 222.24 18.3841 222.24 18.6181V18.987C222.24 19.212 222.356 19.329 222.608 19.329H223.819V19.32ZM222.608 26.6001H228.903V26.2941C228.903 25.9792 228.729 25.8172 228.39 25.8172H223.063C222.763 25.8172 222.608 25.9792 222.608 26.2941V26.6001ZM222.608 28.7688H228.903V27.9499H222.608V28.7688ZM228.39 31.0186C228.729 31.0186 228.903 30.8566 228.903 30.5416V30.1187H222.608V30.5416C222.608 30.8566 222.763 31.0186 223.063 31.0186H228.39ZM228.787 35.2661C228.138 34.7441 227.547 34.0692 227.005 33.2413C226.889 33.0703 226.821 32.8813 226.821 32.6834V32.6024H224.7C224.758 32.7554 224.787 32.8903 224.787 33.0253C224.787 33.3853 224.652 33.6463 224.39 33.8172C224.225 34.0602 223.954 34.3122 223.577 34.5731C223.276 34.8161 222.947 35.0501 222.608 35.2751H228.787V35.2661ZM228.671 19.32C228.913 19.32 229.039 19.212 229.039 18.978V18.6091C229.039 18.3841 228.923 18.2671 228.671 18.2671H227.46V19.311H228.671V19.32Z" fill="white"/>
</mask>
<g mask="url(#mask4_32_10930)">
<path d="M229.019 18.2939H227.45V19.3391H229.019V18.2939Z" fill="white"/>
<path d="M228.787 32.5933H222.608V32.8278H228.787V32.5933Z" fill="white"/>
<path d="M228.787 32.8267H222.608V33.1333H228.787V32.8267Z" fill="white"/>
<path d="M228.787 33.1338H222.608V33.4405H228.787V33.1338Z" fill="white"/>
<path d="M228.787 33.4399H222.608V33.7466H228.787V33.4399Z" fill="white"/>
<path d="M228.787 33.7441H222.608V34.0508H228.787V33.7441Z" fill="white"/>
<path d="M228.787 34.0503H222.608V34.357H228.787V34.0503Z" fill="white"/>
<path d="M228.787 34.356H222.608V34.6626H228.787V34.356Z" fill="white"/>
<path d="M228.787 34.6719H222.608V34.9786H228.787V34.6719Z" fill="white"/>
<path d="M228.787 34.978H222.608V35.2667H228.787V34.978Z" fill="white"/>
<path d="M228.903 30.1196H222.608V30.3722H228.903V30.1196Z" fill="white"/>
<path d="M228.903 30.3701H222.608V30.6768H228.903V30.3701Z" fill="white"/>
<path d="M228.903 30.6768H222.608V30.9834H228.903V30.6768Z" fill="white"/>
<path d="M228.903 30.98H222.608V31.016H228.903V30.98Z" fill="white"/>
<path d="M228.903 27.959H222.608V28.2296H228.903V27.959Z" fill="white"/>
<path d="M228.903 28.2197H222.608V28.5264H228.903V28.2197Z" fill="white"/>
<path d="M228.903 28.5244H222.608V28.768H228.903V28.5244Z" fill="white"/>
<path d="M228.903 25.8159H222.608V26.0685H228.903V25.8159Z" fill="white"/>
<path d="M228.903 26.0674H222.608V26.3741H228.903V26.0674Z" fill="white"/>
<path d="M228.903 26.3745H222.608V26.6H228.903V26.3745Z" fill="white"/>
<path d="M223.809 18.2939H222.24V19.3391H223.809V18.2939Z" fill="white"/>
<path d="M214.376 20.2822H211.712V20.5528H214.376V20.2822Z" fill="white"/>
<path d="M214.376 20.5552H211.712V20.8619H214.376V20.5552Z" fill="white"/>
<path d="M214.376 20.8555H211.712V21.1621H214.376V20.8555Z" fill="white"/>
<path d="M214.376 21.1592H211.712V21.4659H214.376V21.1592Z" fill="white"/>
<path d="M214.376 21.4697H211.712V21.7764H214.376V21.4697Z" fill="white"/>
<path d="M214.376 21.7783H211.712V22.085H214.376V21.7783Z" fill="white"/>
<path d="M214.376 22.084H211.712V22.3907H214.376V22.084Z" fill="white"/>
<path d="M214.376 22.3901H211.712V22.6968H214.376V22.3901Z" fill="white"/>
<path d="M214.376 22.6929H211.712V22.9995H214.376V22.6929Z" fill="white"/>
<path d="M214.376 22.9985H211.712V23.3052H214.376V22.9985Z" fill="white"/>
<path d="M214.376 23.3062H211.712V23.6128H214.376V23.3062Z" fill="white"/>
<path d="M214.376 23.6118H211.712V23.9185H214.376V23.6118Z" fill="white"/>
<path d="M214.376 23.918H211.712V24.2246H214.376V23.918Z" fill="white"/>
<path d="M214.376 24.2324H211.712V24.5391H214.376V24.2324Z" fill="white"/>
<path d="M214.376 24.5405H211.712V24.8472H214.376V24.5405Z" fill="white"/>
<path d="M214.376 24.8438H211.712V25.1504H214.376V24.8438Z" fill="white"/>
<path d="M214.376 25.1519H211.712V25.4585H214.376V25.1519Z" fill="white"/>
<path d="M214.376 25.4561H211.712V25.6455H214.376V25.4561Z" fill="white"/>
<path d="M232.981 12.4258H204.323V19.9219H232.981V12.4258Z" fill="white"/>
<path d="M232.981 19.9404H204.323V20.2471H232.981V19.9404Z" fill="white"/>
<path d="M232.981 20.2476H204.323V20.5542H232.981V20.2476Z" fill="white"/>
<path d="M232.981 20.5552H204.323V20.8619H232.981V20.5552Z" fill="white"/>
<path d="M232.981 20.8555H204.323V21.1621H232.981V20.8555Z" fill="white"/>
<path d="M232.981 21.1592H204.323V21.4659H232.981V21.1592Z" fill="white"/>
<path d="M232.981 21.4697H204.323V21.7764H232.981V21.4697Z" fill="white"/>
<path d="M232.981 21.7783H204.323V22.085H232.981V21.7783Z" fill="white"/>
<path d="M232.981 22.084H204.323V22.3907H232.981V22.084Z" fill="white"/>
<path d="M232.981 22.3901H204.323V22.6968H232.981V22.3901Z" fill="white"/>
<path d="M232.981 22.6929H204.323V22.9995H232.981V22.6929Z" fill="white"/>
<path d="M232.981 22.9985H204.323V23.3052H232.981V22.9985Z" fill="white"/>
<path d="M232.981 23.3062H204.323V23.6128H232.981V23.3062Z" fill="white"/>
<path d="M232.981 23.6118H204.323V23.9185H232.981V23.6118Z" fill="white"/>
<path d="M232.981 23.918H204.323V24.2246H232.981V23.918Z" fill="white"/>
<path d="M232.981 24.2324H204.323V24.5391H232.981V24.2324Z" fill="white"/>
<path d="M232.981 24.5405H204.323V24.8472H232.981V24.5405Z" fill="white"/>
<path d="M232.981 24.8438H204.323V25.1504H232.981V24.8438Z" fill="white"/>
<path d="M232.981 25.1519H204.323V25.4585H232.981V25.1519Z" fill="white"/>
<path d="M232.981 25.4561H204.323V25.7627H232.981V25.4561Z" fill="white"/>
<path d="M232.981 25.7622H204.323V26.0689H232.981V25.7622Z" fill="white"/>
<path d="M232.981 26.0674H204.323V26.3741H232.981V26.0674Z" fill="white"/>
<path d="M232.981 26.3745H204.323V26.6812H232.981V26.3745Z" fill="white"/>
<path d="M232.981 26.6816H204.323V26.9883H232.981V26.6816Z" fill="white"/>
<path d="M232.981 26.9951H204.323V27.3018H232.981V26.9951Z" fill="white"/>
<path d="M232.981 27.3018H204.323V27.6084H232.981V27.3018Z" fill="white"/>
<path d="M232.981 27.6084H204.323V27.9151H232.981V27.6084Z" fill="white"/>
<path d="M232.981 27.9121H204.323V28.2188H232.981V27.9121Z" fill="white"/>
<path d="M232.981 28.2197H204.323V28.5264H232.981V28.2197Z" fill="white"/>
<path d="M232.981 28.5244H204.323V28.8311H232.981V28.5244Z" fill="white"/>
<path d="M232.981 28.8301H204.323V29.1368H232.981V28.8301Z" fill="white"/>
<path d="M232.981 29.1372H204.323V29.4439H232.981V29.1372Z" fill="white"/>
<path d="M232.981 29.4512H204.323V29.7578H232.981V29.4512Z" fill="white"/>
<path d="M232.981 29.7583H204.323V30.065H232.981V29.7583Z" fill="white"/>
<path d="M232.981 30.0649H204.323V30.3716H232.981V30.0649Z" fill="white"/>
<path d="M232.981 30.3701H204.323V30.6768H232.981V30.3701Z" fill="white"/>
<path d="M232.981 30.6768H204.323V30.9834H232.981V30.6768Z" fill="white"/>
<path d="M232.981 30.98H204.323V31.2867H232.981V30.98Z" fill="white"/>
<path d="M232.981 31.2886H204.323V31.5953H232.981V31.2886Z" fill="white"/>
<path d="M232.981 31.5923H204.323V31.899H232.981V31.5923Z" fill="white"/>
<path d="M232.981 31.8999H204.323V32.2066H232.981V31.8999Z" fill="white"/>
<path d="M232.981 32.2139H204.323V32.5205H232.981V32.2139Z" fill="white"/>
<path d="M232.981 32.52H204.323V32.8267H232.981V32.52Z" fill="white"/>
<path d="M232.981 32.8267H204.323V33.1333H232.981V32.8267Z" fill="white"/>
<path d="M232.981 33.1338H204.323V33.4405H232.981V33.1338Z" fill="white"/>
<path d="M232.981 33.4399H204.323V33.7466H232.981V33.4399Z" fill="white"/>
<path d="M232.981 33.7441H204.323V34.0508H232.981V33.7441Z" fill="white"/>
<path d="M232.981 34.0503H204.323V34.357H232.981V34.0503Z" fill="white"/>
<path d="M232.981 34.356H204.323V34.6626H232.981V34.356Z" fill="white"/>
<path d="M232.981 34.6719H204.323V34.9786H232.981V34.6719Z" fill="white"/>
<path d="M232.981 34.978H204.323V35.2847H232.981V34.978Z" fill="white"/>
<path d="M232.981 35.2832H204.323V35.5899H232.981V35.2832Z" fill="white"/>
<path d="M232.981 35.5884H204.323V35.8951H232.981V35.5884Z" fill="white"/>
<path d="M232.981 35.8936H204.323V38.6417H232.981V35.8936Z" fill="white"/>
</g>
<path d="M83.0095 47.3418H83.9489L86.128 52.1292L88.3943 47.3418H88.559L90.8349 52.1292L93.0528 47.3418H94.0019L90.9221 53.938H90.7477L88.4815 49.2136L86.2152 53.938H86.0409L83.0095 47.3418Z" fill="white"/>
<path d="M94.118 47.3418H95.0575L97.2366 52.1292L99.5029 47.3418H99.6675L101.943 52.1292L104.161 47.3418H105.11L102.031 53.938H101.856L99.59 49.2136L97.3238 53.938H97.1494L94.118 47.3418Z" fill="white"/>
<path d="M105.227 47.3418H106.166L108.345 52.1292L110.612 47.3418H110.776L113.052 52.1292L115.27 47.3418H116.219L113.139 53.938H112.965L110.699 49.2136L108.432 53.938H108.258L105.227 47.3418Z" fill="white"/>
<path d="M118.301 52.5967C118.524 52.5967 118.708 52.6688 118.873 52.8129C119.028 52.9571 119.105 53.1373 119.105 53.3445C119.105 53.5518 119.028 53.732 118.873 53.8761C118.718 54.0203 118.524 54.1014 118.301 54.1014C118.079 54.1014 117.895 54.0293 117.73 53.8761C117.575 53.732 117.497 53.5518 117.497 53.3445C117.497 53.1373 117.575 52.9571 117.73 52.8129C117.885 52.6688 118.079 52.5967 118.301 52.5967Z" fill="white"/>
<path d="M120.229 47.343H121.197L123.638 52.4274L126.011 47.343H126.979L122.747 56.3509H121.778L123.144 53.4352L120.229 47.334V47.343Z" fill="white"/>
<path d="M131.521 47.1714C132.616 47.1714 133.526 47.5403 134.243 48.2783C134.901 48.9532 135.221 49.7451 135.221 50.663C135.221 51.5809 134.872 52.3908 134.185 53.0837C133.497 53.7766 132.606 54.1185 131.521 54.1185C130.437 54.1185 129.546 53.7766 128.848 53.0837C128.161 52.3908 127.812 51.5898 127.812 50.663C127.812 49.7361 128.141 48.9532 128.79 48.2872C129.507 47.5493 130.417 47.1804 131.512 47.1804L131.521 47.1714ZM131.521 47.9993C130.766 47.9993 130.107 48.2603 129.565 48.7822C129.023 49.3041 128.742 49.9341 128.742 50.672C128.742 51.1489 128.868 51.5899 129.119 52.0038C129.371 52.4178 129.7 52.7327 130.127 52.9577C130.553 53.1827 131.018 53.2996 131.521 53.2996C132.025 53.2996 132.49 53.1917 132.916 52.9577C133.342 52.7327 133.681 52.4178 133.923 52.0038C134.175 51.5899 134.291 51.1489 134.291 50.672C134.291 49.9341 134.02 49.3041 133.468 48.7822C132.916 48.2603 132.267 47.9993 131.512 47.9993H131.521Z" fill="white"/>
<path d="M136.906 47.3424H137.817V48.5212C138.185 48.0713 138.591 47.7293 139.027 47.5043C139.473 47.2794 139.957 47.1714 140.48 47.1714C141.003 47.1714 141.477 47.2974 141.894 47.5493C142.301 47.8013 142.611 48.1343 142.804 48.5572C142.998 48.9802 143.095 49.6461 143.095 50.537V53.9296H142.184V50.7799C142.184 50.024 142.155 49.5111 142.088 49.2591C141.981 48.8182 141.778 48.4942 141.477 48.2783C141.177 48.0533 140.79 47.9453 140.306 47.9453C139.754 47.9453 139.26 48.1163 138.824 48.4582C138.388 48.8002 138.097 49.2141 137.962 49.7181C137.875 50.042 137.836 50.645 137.836 51.5179V53.9386H136.926V47.3424H136.906Z" fill="white"/>
<path d="M151.182 47.3424H152.092V52.5977C152.092 53.5246 152.005 54.1995 151.831 54.6315C151.588 55.2344 151.172 55.7024 150.581 56.0353C149.99 56.3593 149.274 56.5303 148.45 56.5303C147.84 56.5303 147.298 56.4493 146.814 56.2873C146.33 56.1253 145.932 55.9093 145.632 55.6394C145.332 55.3694 145.051 54.9734 144.79 54.4605H145.777C146.049 54.9014 146.397 55.2254 146.823 55.4324C147.25 55.6394 147.782 55.7473 148.412 55.7473C149.041 55.7473 149.564 55.6394 149.99 55.4234C150.417 55.2074 150.726 54.9374 150.91 54.6135C151.094 54.2895 151.182 53.7586 151.182 53.0297V52.6877C150.833 53.0927 150.417 53.3986 149.923 53.6146C149.429 53.8306 148.896 53.9386 148.344 53.9386C147.695 53.9386 147.075 53.7856 146.504 53.4886C145.932 53.1917 145.487 52.7777 145.167 52.2738C144.857 51.7608 144.693 51.2029 144.693 50.591C144.693 49.979 144.857 49.4121 145.187 48.8812C145.516 48.3502 145.961 47.9363 146.543 47.6303C147.124 47.3244 147.724 47.1714 148.373 47.1714C148.906 47.1714 149.4 47.2704 149.855 47.4773C150.31 47.6843 150.756 48.0173 151.182 48.4852V47.3424ZM148.489 47.9903C147.966 47.9903 147.492 48.1073 147.046 48.3412C146.601 48.5752 146.252 48.8992 146 49.3041C145.748 49.7091 145.622 50.159 145.622 50.636C145.622 51.3559 145.884 51.9588 146.407 52.4268C146.93 52.8947 147.608 53.1377 148.441 53.1377C149.274 53.1377 149.952 52.9037 150.465 52.4357C150.978 51.9678 151.23 51.3469 151.23 50.582C151.23 50.087 151.114 49.6461 150.881 49.2501C150.649 48.8632 150.31 48.5482 149.884 48.3232C149.448 48.0983 148.993 47.9813 148.489 47.9813V47.9903Z" fill="white"/>
<path d="M154.116 53.9378V44.7949H155.027V48.4755C155.414 48.0345 155.84 47.7106 156.315 47.4946C156.789 47.2786 157.312 47.1706 157.874 47.1706C158.881 47.1706 159.734 47.5126 160.45 48.1875C161.157 48.8624 161.516 49.6903 161.516 50.6532C161.516 51.6161 161.157 52.417 160.441 53.1009C159.724 53.7758 158.862 54.1088 157.855 54.1088C157.274 54.1088 156.751 53.9918 156.286 53.7668C155.821 53.5419 155.404 53.1909 155.036 52.732V53.9468H154.126L154.116 53.9378ZM157.767 53.2899C158.271 53.2899 158.746 53.1729 159.172 52.9389C159.598 52.705 159.947 52.381 160.198 51.9581C160.45 51.5351 160.576 51.0942 160.576 50.6262C160.576 50.1583 160.45 49.7083 160.189 49.2854C159.937 48.8624 159.588 48.5295 159.152 48.2955C158.717 48.0615 158.261 47.9445 157.767 47.9445C157.274 47.9445 156.799 48.0615 156.344 48.2955C155.898 48.5295 155.55 48.8534 155.308 49.2494C155.065 49.6543 154.949 50.1043 154.949 50.5992C154.949 51.3641 155.22 52.003 155.763 52.516C156.305 53.0289 156.964 53.2899 157.758 53.2899H157.767Z" fill="white"/>
<path d="M170.242 47.344V53.9402H169.341V52.8064C168.954 53.2383 168.527 53.5623 168.053 53.7783C167.578 53.9942 167.055 54.1022 166.494 54.1022C165.486 54.1022 164.634 53.7603 163.917 53.0853C163.21 52.4104 162.852 51.5825 162.852 50.6106C162.852 49.6388 163.21 48.8469 163.927 48.1719C164.644 47.497 165.506 47.1641 166.513 47.1641C167.094 47.1641 167.627 47.281 168.092 47.506C168.566 47.74 168.983 48.082 169.331 48.5409V47.326H170.232L170.242 47.344ZM166.59 47.992C166.087 47.992 165.612 48.1089 165.186 48.3429C164.76 48.5769 164.411 48.9009 164.159 49.3238C163.908 49.7468 163.782 50.1877 163.782 50.6556C163.782 51.1236 163.908 51.5645 164.169 51.9875C164.431 52.4104 164.77 52.7434 165.205 52.9774C165.641 53.2113 166.106 53.3283 166.6 53.3283C167.094 53.3283 167.569 53.2113 168.024 52.9774C168.469 52.7434 168.818 52.4284 169.06 52.0235C169.302 51.6185 169.418 51.1686 169.418 50.6736C169.418 49.9087 169.147 49.2698 168.605 48.7569C168.063 48.2439 167.394 47.992 166.61 47.992H166.59Z" fill="white"/>
<path d="M175.665 47.1714C176.76 47.1714 177.67 47.5403 178.387 48.2783C179.045 48.9532 179.365 49.7451 179.365 50.663C179.365 51.5809 179.016 52.3908 178.328 53.0837C177.641 53.7766 176.75 54.1185 175.665 54.1185C174.58 54.1185 173.689 53.7766 172.992 53.0837C172.304 52.3908 171.956 51.5898 171.956 50.663C171.956 49.7361 172.285 48.9532 172.934 48.2872C173.651 47.5493 174.561 47.1804 175.655 47.1804L175.665 47.1714ZM175.665 47.9993C174.91 47.9993 174.251 48.2603 173.709 48.7822C173.166 49.3041 172.886 49.9341 172.886 50.672C172.886 51.1489 173.011 51.5899 173.263 52.0038C173.515 52.4178 173.844 52.7327 174.27 52.9577C174.697 53.1827 175.161 53.2996 175.665 53.2996C176.169 53.2996 176.634 53.1917 177.06 52.9577C177.486 52.7327 177.825 52.4178 178.067 52.0038C178.319 51.5899 178.435 51.1489 178.435 50.672C178.435 49.9341 178.164 49.3041 177.612 48.7822C177.06 48.2603 176.411 47.9993 175.655 47.9993H175.665Z" fill="white"/>
<path d="M182.057 52.5967C182.28 52.5967 182.464 52.6688 182.629 52.8129C182.793 52.9571 182.861 53.1373 182.861 53.3445C182.861 53.5518 182.784 53.732 182.629 53.8761C182.474 54.0203 182.28 54.1014 182.057 54.1014C181.834 54.1014 181.65 54.0293 181.486 53.8761C181.331 53.732 181.253 53.5518 181.253 53.3445C181.253 53.1373 181.331 52.9571 181.486 52.8129C181.641 52.6688 181.834 52.5967 182.057 52.5967Z" fill="white"/>
<path d="M191.645 48.7119L190.919 49.1258C190.29 48.3519 189.437 47.965 188.353 47.965C187.491 47.965 186.774 48.2259 186.202 48.7389C185.631 49.2518 185.341 49.8817 185.341 50.6196C185.341 51.0966 185.476 51.5555 185.738 51.9785C185.999 52.4014 186.357 52.7344 186.822 52.9684C187.278 53.2023 187.791 53.3193 188.362 53.3193C189.408 53.3193 190.26 52.9324 190.919 52.1585L191.645 52.5994C191.306 53.0763 190.851 53.4453 190.28 53.7063C189.708 53.9672 189.06 54.1022 188.323 54.1022C187.2 54.1022 186.27 53.7693 185.534 53.1123C184.798 52.4464 184.42 51.6455 184.42 50.6916C184.42 50.0527 184.595 49.4588 184.943 48.9099C185.292 48.3609 185.767 47.938 186.367 47.623C186.968 47.317 187.646 47.1641 188.401 47.1641C188.866 47.1641 189.321 47.2271 189.757 47.362C190.193 47.497 190.561 47.668 190.871 47.884C191.171 48.0999 191.432 48.3699 191.645 48.7029V48.7119Z" fill="white"/>
<path d="M196.759 47.1714C197.853 47.1714 198.764 47.5403 199.48 48.2783C200.139 48.9532 200.458 49.7451 200.458 50.663C200.458 51.5809 200.11 52.3908 199.422 53.0837C198.734 53.7766 197.843 54.1185 196.759 54.1185C195.674 54.1185 194.783 53.7766 194.086 53.0837C193.398 52.3908 193.049 51.5898 193.049 50.663C193.049 49.7361 193.379 48.9532 194.028 48.2872C194.744 47.5493 195.655 47.1804 196.749 47.1804L196.759 47.1714ZM196.759 47.9993C196.003 47.9993 195.345 48.2603 194.802 48.7822C194.26 49.3041 193.979 49.9341 193.979 50.672C193.979 51.1489 194.105 51.5899 194.357 52.0038C194.609 52.4178 194.938 52.7327 195.364 52.9577C195.79 53.1827 196.255 53.2996 196.759 53.2996C197.262 53.2996 197.727 53.1917 198.153 52.9577C198.58 52.7327 198.918 52.4178 199.161 52.0038C199.412 51.5899 199.529 51.1489 199.529 50.672C199.529 49.9341 199.257 49.3041 198.705 48.7822C198.153 48.2603 197.505 47.9993 196.749 47.9993H196.759Z" fill="white"/>
<path d="M202.144 47.3431H203.054V48.486C203.374 48.063 203.703 47.7571 204.032 47.5681C204.497 47.3071 204.982 47.1812 205.485 47.1812C205.834 47.1812 206.153 47.2441 206.463 47.3701C206.773 47.4961 207.025 47.6581 207.219 47.8741C207.412 48.081 207.587 48.378 207.732 48.765C208.032 48.252 208.42 47.8561 208.875 47.5861C209.33 47.3161 209.824 47.1812 210.347 47.1812C210.841 47.1812 211.267 47.2981 211.645 47.5231C212.022 47.7571 212.303 48.072 212.478 48.486C212.662 48.8999 212.749 49.5209 212.749 50.3398V53.9393H211.819V50.3398C211.819 49.6289 211.761 49.1429 211.654 48.8819C211.548 48.621 211.364 48.405 211.102 48.243C210.841 48.081 210.531 48.0001 210.163 48.0001C209.717 48.0001 209.32 48.117 208.952 48.36C208.584 48.603 208.313 48.9269 208.149 49.3319C207.984 49.7368 207.897 50.4118 207.897 51.3566V53.9393H206.986V50.5647C206.986 49.7728 206.938 49.2239 206.822 48.9449C206.715 48.657 206.531 48.432 206.26 48.261C205.998 48.09 205.679 48.0001 205.311 48.0001C204.885 48.0001 204.497 48.117 204.129 48.351C203.761 48.585 203.49 48.9089 203.316 49.3049C203.141 49.7098 203.054 50.3128 203.054 51.1407V53.9393H202.144V47.3431Z" fill="white"/>
<path d="M215.693 52.5967C215.916 52.5967 216.1 52.6688 216.265 52.8129C216.429 52.9571 216.497 53.1373 216.497 53.3445C216.497 53.5518 216.42 53.732 216.265 53.8761C216.11 54.0203 215.916 54.1014 215.693 54.1014C215.47 54.1014 215.286 54.0293 215.122 53.8761C214.967 53.732 214.889 53.5518 214.889 53.3445C214.889 53.1373 214.967 52.9571 215.122 52.8129C215.277 52.6688 215.47 52.5967 215.693 52.5967Z" fill="white"/>
<path d="M219.18 44.8843H220.09V47.332H221.543V48.0699H220.09V53.9372H219.18V48.0699H217.93V47.332H219.18V44.8843Z" fill="white"/>
<path d="M221.959 47.3418H222.898L225.078 52.1292L227.344 47.3418H227.509L229.794 52.1292L232.012 47.3418H232.961L229.872 53.938H229.707L227.441 49.2136L225.174 53.938H225L221.969 47.3418H221.959Z" fill="white"/>
</svg>
