<svg width="50" height="51" viewBox="0 0 50 51" fill="none" xmlns="http://www.w3.org/2000/svg">
<g clip-path="url(#clip0_6136_2648)">
<mask id="mask0_6136_2648" style="mask-type:luminance" maskUnits="userSpaceOnUse" x="0" y="0" width="50" height="51">
<path d="M50 0H0V51H50V0Z" fill="white"/>
</mask>
<g mask="url(#mask0_6136_2648)">
<path d="M25 50.25C38.8071 50.25 50 39.0571 50 25.25C50 11.4429 38.8071 0.25 25 0.25C11.1929 0.25 0 11.4429 0 25.25C0 39.0571 11.1929 50.25 25 50.25Z" fill="url(#paint0_linear_6136_2648)"/>
<path d="M24.7194 17.4151C23.2281 17.4151 21.7704 17.8573 20.5304 18.6858C19.2905 19.5143 18.3241 20.6918 17.7534 22.0696C17.1827 23.4473 17.0334 24.9634 17.3243 26.426C17.6153 27.8885 18.3334 29.232 19.3879 30.2865C20.4423 31.341 21.7858 32.0591 23.2484 32.35C24.711 32.6409 26.227 32.4916 27.6048 31.921C28.9825 31.3503 30.1601 30.3839 30.9886 29.1439C31.8171 27.904 32.2593 26.4462 32.2593 24.955C32.2607 23.9644 32.0667 22.9833 31.6882 22.0679C31.3098 21.1525 30.7545 20.3207 30.0541 19.6203C29.3536 18.9199 28.5219 18.3645 27.6065 17.9861C26.691 17.6077 25.7099 17.4137 24.7194 17.4151ZM24.7194 29.858C23.7497 29.858 22.8017 29.5704 21.9954 29.0317C21.1891 28.4929 20.5607 27.7272 20.1896 26.8313C19.8185 25.9354 19.7214 24.9495 19.9106 23.9985C20.0998 23.0474 20.5667 22.1737 21.2524 21.488C21.9381 20.8023 22.8118 20.3354 23.7629 20.1462C24.7139 19.957 25.6998 20.0541 26.5957 20.4252C27.4916 20.7963 28.2573 21.4247 28.7961 22.231C29.3348 23.0373 29.6224 23.9853 29.6224 24.955C29.62 26.2546 29.1027 27.5003 28.1837 28.4193C27.2647 29.3383 26.019 29.8556 24.7194 29.858ZM34.3274 17.1073C34.3274 17.4551 34.2243 17.7951 34.031 18.0843C33.8378 18.3735 33.5632 18.5989 33.2418 18.732C32.9205 18.8651 32.5669 18.8999 32.2258 18.832C31.8847 18.7642 31.5713 18.5967 31.3254 18.3508C31.0795 18.1048 30.912 17.7915 30.8441 17.4504C30.7763 17.1092 30.8111 16.7557 30.9442 16.4343C31.0773 16.113 31.3027 15.8384 31.5919 15.6451C31.8811 15.4519 32.2211 15.3488 32.5689 15.3488C32.7996 15.3488 33.0281 15.3943 33.2413 15.4827C33.4544 15.5711 33.6481 15.7007 33.8111 15.864C33.9741 16.0274 34.1033 16.2213 34.1913 16.4346C34.2792 16.6479 34.3243 16.8765 34.3238 17.1073H34.3274ZM39.3222 18.8928C39.3709 16.6061 38.5174 14.3921 36.9463 12.7299C35.2807 11.1641 33.069 10.3115 30.7833 10.3539C28.3552 10.2154 21.0781 10.2154 18.65 10.3539C16.3622 10.3072 14.1471 11.1589 12.4799 12.7263C10.9114 14.3902 10.0584 16.603 10.1039 18.8892C9.96537 21.3173 9.96537 28.5944 10.1039 31.0226C10.0562 33.308 10.9097 35.5205 12.4799 37.1819C14.1462 38.7465 16.3574 39.599 18.6428 39.5578C21.0709 39.6964 28.348 39.6964 30.7761 39.5578C33.0628 39.6063 35.2767 38.7528 36.9391 37.1819C38.5049 35.5163 39.3575 33.3046 39.315 31.019C39.4554 28.5926 39.4554 21.3209 39.3186 18.8928H39.3222ZM36.1849 33.6253C35.9354 34.2579 35.5585 34.8324 35.0777 35.3133C34.5968 35.7941 34.0222 36.171 33.3896 36.4205C31.4529 37.1891 26.8595 37.0109 24.7212 37.0109C22.5829 37.0109 17.9822 37.1819 16.0527 36.4205C15.4201 36.171 14.8456 35.7941 14.3647 35.3133C13.8839 34.8324 13.507 34.2579 13.2574 33.6253C12.4799 31.6885 12.6598 27.0951 12.6598 24.9568C12.6598 22.8185 12.4889 18.2178 13.2502 16.2883C13.4998 15.6557 13.8767 15.0812 14.3575 14.6003C14.8384 14.1195 15.4129 13.7426 16.0455 13.493C17.984 12.7263 22.5775 12.9062 24.7194 12.9062C26.8613 12.9062 31.4583 12.7353 33.3878 13.4966C34.0204 13.7462 34.595 14.1231 35.0759 14.6039C35.5567 15.0848 35.9336 15.6593 36.1831 16.2919C36.9517 18.2286 36.7735 22.8221 36.7735 24.9604C36.7735 27.0987 36.9499 31.6957 36.1813 33.6253H36.1849Z" fill="white"/>
</g>
</g>
<defs>
<linearGradient id="paint0_linear_6136_2648" x1="50" y1="-5.5" x2="14" y2="69" gradientUnits="userSpaceOnUse">
<stop stop-color="#515BD4"/>
<stop offset="0.255" stop-color="#8134AF"/>
<stop offset="0.5" stop-color="#DD2A7B"/>
<stop offset="0.75" stop-color="#FEDA77"/>
<stop offset="1" stop-color="#F58529"/>
</linearGradient>
<clipPath id="clip0_6136_2648">
<rect width="50" height="51" fill="white"/>
</clipPath>
</defs>
</svg>
