<svg width="50" height="51" viewBox="0 0 50 51" fill="none" xmlns="http://www.w3.org/2000/svg">
<g clip-path="url(#clip0_6136_2655)">
<mask id="mask0_6136_2655" style="mask-type:luminance" maskUnits="userSpaceOnUse" x="0" y="0" width="50" height="51">
<path d="M50 0H0V51H50V0Z" fill="white"/>
</mask>
<g mask="url(#mask0_6136_2655)">
<path d="M25 50.75C38.8071 50.75 50 39.5571 50 25.75C50 11.9429 38.8071 0.75 25 0.75C11.1929 0.75 0 11.9429 0 25.75C0 39.5571 11.1929 50.75 25 50.75Z" fill="#05C654"/>
<path d="M41.4538 23.2771C41.4538 15.6805 33.8381 9.5 24.4767 9.5C15.1153 9.5 7.49951 15.6805 7.49951 23.2771C7.49951 30.0878 13.5463 35.7924 21.6967 36.8697C22.2505 36.9891 23.0032 37.2341 23.1925 37.7067C23.3644 38.1364 23.3055 38.8095 23.2482 39.2423C23.2482 39.2423 23.0493 40.4405 23.0064 40.6951C22.9316 41.1247 22.6642 42.3739 24.4767 41.6117C26.2891 40.8495 34.2534 35.8545 37.8146 31.7538C40.2747 29.0566 41.4538 26.3133 41.4538 23.2771Z" fill="white"/>
<path d="M35.8044 27.664H31.0307C30.9462 27.664 30.8653 27.6304 30.8056 27.5708C30.7459 27.5111 30.7124 27.4301 30.7124 27.3457V19.9384C30.7124 19.854 30.7459 19.773 30.8056 19.7134C30.8653 19.6537 30.9462 19.6201 31.0307 19.6201H35.8044C35.8888 19.6201 35.9698 19.6537 36.0295 19.7134C36.0892 19.773 36.1227 19.854 36.1227 19.9384V21.143C36.1227 21.2274 36.0892 21.3083 36.0295 21.368C35.9698 21.4277 35.8888 21.4612 35.8044 21.4612H32.563V22.7104H35.8044C35.8888 22.7104 35.9698 22.7439 36.0295 22.8036C36.0892 22.8633 36.1227 22.9442 36.1227 23.0286V24.2444C36.1227 24.3288 36.0892 24.4097 36.0295 24.4694C35.9698 24.5291 35.8888 24.5626 35.8044 24.5626H32.563V25.8133H35.8044C35.8888 25.8133 35.9698 25.8469 36.0295 25.9066C36.0892 25.9662 36.1227 26.0472 36.1227 26.1316V27.3346C36.1242 27.3773 36.1171 27.4199 36.1017 27.4598C36.0864 27.4997 36.0632 27.5361 36.0335 27.5669C36.0038 27.5976 35.9682 27.622 35.9289 27.6387C35.8895 27.6554 35.8472 27.664 35.8044 27.664Z" fill="#05C654"/>
<path d="M18.161 27.6645C18.2454 27.6645 18.3264 27.631 18.386 27.5713C18.4457 27.5116 18.4792 27.4307 18.4792 27.3463V26.1433C18.4792 26.0589 18.4457 25.9779 18.386 25.9183C18.3264 25.8586 18.2454 25.825 18.161 25.825H14.9196V19.9374C14.9196 19.853 14.8861 19.772 14.8264 19.7123C14.7667 19.6526 14.6857 19.6191 14.6013 19.6191H13.392C13.3076 19.6191 13.2266 19.6526 13.1669 19.7123C13.1073 19.772 13.0737 19.853 13.0737 19.9374V27.3415C13.0737 27.4259 13.1073 27.5069 13.1669 27.5665C13.2266 27.6262 13.3076 27.6598 13.392 27.6598H18.1658L18.161 27.6645Z" fill="#05C654"/>
<path d="M21.034 19.6064H19.831C19.6517 19.6064 19.5063 19.7517 19.5063 19.931V27.3399C19.5063 27.5192 19.6517 27.6646 19.831 27.6646H21.034C21.2132 27.6646 21.3586 27.5192 21.3586 27.3399V19.931C21.3586 19.7517 21.2132 19.6064 21.034 19.6064Z" fill="#05C654"/>
<path d="M29.2301 19.6064H28.0271C27.9427 19.6064 27.8617 19.6399 27.8021 19.6996C27.7424 19.7593 27.7088 19.8402 27.7088 19.9247V24.3261L24.3194 19.748C24.3117 19.7359 24.3026 19.7247 24.2924 19.7146L24.2733 19.6955L24.2558 19.6812H24.2463L24.2287 19.6685H24.2192L24.2017 19.6589H24.1906H24.1731H24.1619H24.1428H24.1301H24.111H24.0983H24.0808H22.8539C22.7695 19.6589 22.6885 19.6924 22.6289 19.7521C22.5692 19.8118 22.5356 19.8928 22.5356 19.9772V27.3861C22.5356 27.4705 22.5692 27.5514 22.6289 27.6111C22.6885 27.6708 22.7695 27.7043 22.8539 27.7043H24.0585C24.1429 27.7043 24.2238 27.6708 24.2835 27.6111C24.3432 27.5514 24.3767 27.4705 24.3767 27.3861V22.9417L27.7709 27.5245C27.7931 27.557 27.8212 27.585 27.8536 27.6073L27.8727 27.62H27.8823L27.8982 27.628H27.9141H27.9252H27.9475C27.9757 27.6349 28.0045 27.6386 28.0335 27.6391H29.2301C29.3145 27.6391 29.3954 27.6056 29.4551 27.5459C29.5148 27.4862 29.5483 27.4052 29.5483 27.3208V19.931C29.5492 19.8887 29.5416 19.8466 29.526 19.8073C29.5103 19.7679 29.487 19.7321 29.4574 19.7019C29.4278 19.6716 29.3924 19.6476 29.3534 19.6312C29.3143 19.6148 29.2724 19.6064 29.2301 19.6064Z" fill="#05C654"/>
</g>
</g>
<defs>
<clipPath id="clip0_6136_2655">
<rect width="50" height="51" fill="white"/>
</clipPath>
</defs>
</svg>
