<svg width="50" height="50" viewBox="0 0 50 50" fill="none" xmlns="http://www.w3.org/2000/svg">
<g clip-path="url(#clip0_6136_2666)">
<path d="M25 50C38.8071 50 50 38.8071 50 25C50 11.1929 38.8071 0 25 0C11.1929 0 0 11.1929 0 25C0 38.8071 11.1929 50 25 50Z" fill="#046FE5"/>
<path fill-rule="evenodd" clip-rule="evenodd" d="M27.1485 29.7228L22.6685 25.0678L14.0375 29.84L23.498 19.802L27.978 24.457L36.6055 19.6848L27.1485 29.7228ZM25.3233 8C15.756 8 8 15.252 8 24.1997C8 29.2887 10.5095 33.83 14.4365 36.7998V43L20.348 39.7205C21.923 40.1615 23.5943 40.3995 25.3233 40.3995C34.8923 40.3995 42.6482 33.1457 42.6482 24.1997C42.6482 15.252 34.8923 8 25.3233 8Z" fill="white"/>
</g>
<defs>
<clipPath id="clip0_6136_2666">
<rect width="50" height="50" fill="white"/>
</clipPath>
</defs>
</svg>
