<svg width="50" height="51" viewBox="0 0 50 51" fill="none" xmlns="http://www.w3.org/2000/svg">
<path d="M25 50.75C38.8071 50.75 50 39.5571 50 25.75C50 11.9429 38.8071 0.75 25 0.75C11.1929 0.75 0 11.9429 0 25.75C0 39.5571 11.1929 50.75 25 50.75Z" fill="#ED7F1D"/>
<path d="M25 43.25C34.665 43.25 42.5 35.415 42.5 25.75C42.5 16.085 34.665 8.25 25 8.25C15.335 8.25 7.5 16.085 7.5 25.75C7.5 35.415 15.335 43.25 25 43.25Z" fill="white"/>
<path d="M35.7817 23.8493C33.0449 29.8079 28.1829 34.5306 22.1474 37.0931L21.1782 37.525C20.1049 38.0029 18.8974 38.0867 17.7684 37.7615C16.6394 37.4364 15.6614 36.7232 15.0067 35.7476L13.7396 33.8605C13.5414 33.5646 13.4611 33.2051 13.5146 32.853C13.5682 32.5008 13.7517 32.1814 14.029 31.9578L18.3219 28.4943C18.4714 28.3738 18.6438 28.2847 18.8286 28.2325C19.0134 28.1802 19.2068 28.1658 19.3973 28.1902C19.5878 28.2145 19.7714 28.2771 19.9371 28.3742C20.1028 28.4713 20.2472 28.6009 20.3615 28.7552L21.6899 30.5468C25.0997 28.8627 27.8598 26.1021 29.5432 22.692L27.7531 21.3636C27.5988 21.2493 27.4692 21.1049 27.3721 20.9392C27.275 20.7735 27.2124 20.5899 27.188 20.3994C27.1637 20.2089 27.1781 20.0155 27.2303 19.8307C27.2826 19.6459 27.3717 19.4736 27.4922 19.324L30.9557 15.0311C31.1793 14.7538 31.4987 14.5703 31.8509 14.5168C32.203 14.4632 32.5625 14.5435 32.8584 14.7417L34.7583 16.016C35.7398 16.6741 36.4557 17.6593 36.7786 18.7961C37.1015 19.9328 37.0104 21.1473 36.5214 22.2231L35.7817 23.8493Z" fill="#ED7F1D"/>
</svg>
