<svg width="50" height="51" viewBox="0 0 50 51" fill="none" xmlns="http://www.w3.org/2000/svg">
<g clip-path="url(#clip0_6136_2669)">
<mask id="mask0_6136_2669" style="mask-type:luminance" maskUnits="userSpaceOnUse" x="0" y="0" width="50" height="51">
<path d="M50 0H0V51H50V0Z" fill="white"/>
</mask>
<g mask="url(#mask0_6136_2669)">
<path d="M25 50.5C38.8071 50.5 50 39.3071 50 25.5C50 11.6929 38.8071 0.5 25 0.5C11.1929 0.5 0 11.6929 0 25.5C0 39.3071 11.1929 50.5 25 50.5Z" fill="#DA0000"/>
<path d="M38.6497 18.7259C38.4846 18.1032 38.1588 17.5348 37.7048 17.0777C37.2509 16.6205 36.6848 16.2907 36.0632 16.1213C32.2697 15.6652 28.4502 15.4598 24.6297 15.5065C20.8097 15.4599 16.9909 15.6653 13.198 16.1213C12.5764 16.2907 12.0103 16.6205 11.5564 17.0777C11.1024 17.5348 10.7766 18.1032 10.6115 18.7259C9.79617 23.4168 9.79617 28.2133 10.6115 32.9042C10.7779 33.5217 11.1049 34.0841 11.5592 34.5343C12.0135 34.9844 12.5789 35.3062 13.198 35.467C16.9909 35.923 20.8097 36.1284 24.6297 36.0818C28.4496 36.1284 32.2685 35.923 36.0614 35.467C36.6804 35.3062 37.2459 34.9844 37.7002 34.5343C38.1545 34.0841 38.4815 33.5217 38.6479 32.9042C39.4632 28.2133 39.465 23.4168 38.6497 18.7259ZM21.6376 30.1649V21.4634L29.277 25.8141L21.6376 30.1649Z" fill="white"/>
</g>
</g>
<defs>
<clipPath id="clip0_6136_2669">
<rect width="50" height="51" fill="white"/>
</clipPath>
</defs>
</svg>
