<svg width="38" height="33" viewBox="0 0 38 33" fill="none" xmlns="http://www.w3.org/2000/svg">
<path d="M19.4118 7.76471H3.88235C2.85269 7.76471 1.8652 8.17374 1.13711 8.90182C0.409032 9.6299 0 10.6174 0 11.6471V19.4118C0 20.4414 0.409032 21.4289 1.13711 22.157C1.8652 22.8851 2.85269 23.2941 3.88235 23.2941H5.82353V31.0588C5.82353 31.5737 6.02805 32.0674 6.39209 32.4314C6.75613 32.7955 7.24988 33 7.76471 33H11.6471C12.1619 33 12.6556 32.7955 13.0197 32.4314C13.3837 32.0674 13.5882 31.5737 13.5882 31.0588V23.2941H19.4118L29.1177 31.0588V0L19.4118 7.76471ZM37.8529 15.5294C37.8529 18.8488 35.9894 21.8576 33 23.2941V7.76471C35.97 9.22059 37.8529 12.2294 37.8529 15.5294Z" fill="white"/>
</svg>
